<svg id="svg" xmlns="http://www.w3.org/2000/svg" xmlns:xlink="http://www.w3.org/1999/xlink" width="400" height="163.39869281045753" viewBox="0, 0, 400,163.39869281045753"><g id="svgg"><path id="path0" d="M47.248 1.487 C 46.480 2.316,44.560 4.803,42.981 7.011 C 39.741 11.544,38.578 13.005,36.610 15.023 C 33.595 18.114,24.401 29.206,24.401 29.753 C 24.401 30.494,31.562 39.495,33.064 40.642 C 34.593 41.809,35.238 41.908,41.394 41.919 C 53.092 41.940,64.625 39.479,64.880 36.907 C 65.061 35.081,63.680 34.618,57.516 34.436 C 51.481 34.259,51.031 34.035,52.592 31.991 C 53.773 30.444,56.773 28.008,64.375 22.422 C 71.111 17.472,72.395 16.124,71.974 14.445 C 71.555 12.775,68.766 13.839,61.765 18.343 C 56.538 21.706,55.060 22.511,54.725 22.176 C 53.944 21.395,54.798 20.049,56.972 18.638 C 63.007 14.722,68.921 8.709,68.466 6.952 C 67.901 4.773,65.642 5.757,58.368 11.351 C 48.335 19.066,47.251 19.105,54.090 11.506 C 60.120 4.804,61.058 3.351,60.555 1.483 C 60.025 -0.486,58.438 0.595,50.847 8.099 C 47.838 11.074,45.265 13.508,45.128 13.508 C 44.414 13.508,45.547 10.991,48.198 6.694 C 50.802 2.471,51.267 0.170,49.540 0.043 C 48.683 -0.019,48.585 0.043,47.248 1.487 M235.948 11.479 C 216.572 12.942,205.227 25.960,209.031 42.365 C 211.210 51.762,215.992 55.963,231.135 61.785 C 247.225 67.972,250.206 70.079,250.208 75.272 C 250.213 86.217,234.107 85.795,231.484 74.782 L 231.108 73.203 219.723 73.203 L 208.339 73.203 208.638 75.109 C 211.558 93.747,230.908 103.530,254.357 98.223 C 271.809 94.274,278.916 71.117,266.625 58.252 C 262.429 53.861,259.693 52.424,243.355 46.031 C 233.840 42.308,231.193 39.790,231.415 34.674 C 231.629 29.734,234.495 27.529,239.912 28.135 C 244.332 28.629,246.546 30.631,248.285 35.703 L 248.911 37.528 255.229 37.389 C 258.704 37.313,263.692 37.187,266.315 37.110 L 271.083 36.970 270.947 35.194 C 270.347 27.399,264.297 18.907,256.552 14.991 C 251.304 12.337,243.101 10.939,235.948 11.479 M123.312 55.664 L 123.312 98.693 133.878 98.693 L 144.444 98.693 144.444 55.664 L 144.444 12.636 133.878 12.636 L 123.312 12.636 123.312 55.664 M155.773 55.664 L 155.773 98.693 180.392 98.693 L 205.011 98.693 205.011 90.741 L 205.011 82.789 190.959 82.789 L 176.906 82.789 176.906 47.712 L 176.906 12.636 166.340 12.636 L 155.773 12.636 155.773 55.664 M312.309 12.866 C 303.203 12.945,292.553 13.024,288.643 13.041 L 281.534 13.072 281.404 28.159 C 281.332 36.457,281.224 55.722,281.164 70.969 L 281.054 98.693 308.316 98.693 L 335.577 98.693 335.432 92.865 C 335.352 89.660,335.226 85.996,335.152 84.723 L 335.018 82.408 328.457 82.273 C 324.848 82.199,317.451 82.075,312.020 81.999 L 302.144 81.859 302.299 76.387 C 302.384 73.378,302.514 69.199,302.588 67.102 L 302.723 63.290 309.586 63.156 C 313.361 63.082,319.758 63.008,323.802 62.992 L 331.155 62.963 331.155 54.902 L 331.155 46.841 316.667 46.841 L 302.179 46.841 302.179 38.235 L 302.179 29.630 318.845 29.630 L 335.512 29.630 335.512 21.133 L 335.512 12.636 332.190 12.679 C 330.362 12.703,321.416 12.787,312.309 12.866 M343.573 55.653 L 343.573 98.693 354.031 98.693 L 364.488 98.693 364.488 81.699 L 364.488 64.706 377.996 64.706 L 391.503 64.706 391.503 56.209 L 391.503 47.712 377.996 47.712 L 364.488 47.712 364.488 38.705 L 364.488 29.698 367.791 29.555 C 369.607 29.476,373.553 29.412,376.560 29.411 C 379.566 29.411,386.070 29.346,391.013 29.267 L 400.000 29.123 400.000 21.124 L 400.000 13.125 380.882 12.992 C 370.368 12.919,357.672 12.805,352.669 12.737 L 343.573 12.614 343.573 55.653 M75.938 16.606 C 75.352 17.444,75.493 19.417,76.239 20.816 C 77.440 23.065,76.340 24.500,74.288 23.363 C 72.815 22.547,72.162 22.499,70.806 23.107 C 69.807 23.556,60.145 29.862,60.136 30.072 C 60.129 30.216,67.651 32.898,68.062 32.898 C 68.363 32.898,81.754 22.774,81.869 22.460 C 81.965 22.199,79.146 18.297,78.038 17.157 C 76.923 16.010,76.444 15.884,75.938 16.606 M80.390 25.790 C 75.432 29.134,71.093 32.789,70.349 34.247 C 69.441 36.026,69.232 44.368,69.938 50.660 C 71.259 62.442,72.011 64.924,74.258 64.924 C 75.930 64.924,76.426 63.492,76.600 58.170 C 76.894 49.157,77.798 49.633,87.975 64.161 C 93.190 71.606,93.922 72.439,95.483 72.692 C 98.292 73.148,97.449 70.412,91.949 61.233 C 88.952 56.232,88.543 55.299,89.228 55.036 C 90.227 54.653,91.162 55.515,93.217 58.715 C 96.956 64.539,102.110 69.724,103.836 69.400 C 106.149 68.966,105.062 66.428,99.101 58.341 C 96.817 55.242,94.963 52.373,94.452 51.144 C 93.859 49.720,94.561 50.142,97.714 53.105 C 105.856 60.755,107.026 61.656,108.822 61.656 C 111.773 61.656,110.772 59.769,104.139 52.832 C 98.451 46.884,97.613 45.874,98.299 45.793 C 99.044 45.706,100.479 46.445,103.686 48.564 C 107.191 50.880,108.522 51.499,110.022 51.513 L 111.220 51.525 111.290 50.675 C 111.380 49.572,109.398 47.575,104.902 44.238 C 101.246 41.525,97.603 38.580,97.603 38.338 C 97.603 37.985,87.320 28.687,83.804 25.860 C 82.245 24.607,82.147 24.605,80.390 25.790 M20.243 31.385 C 18.000 33.030,15.904 35.041,15.904 35.547 C 15.904 36.745,18.417 36.972,20.336 35.948 C 22.820 34.622,24.499 35.704,23.208 37.800 C 22.493 38.961,22.497 40.156,23.222 41.519 C 23.925 42.840,30.096 51.634,30.321 51.634 C 30.506 51.634,32.898 44.280,32.898 43.709 C 32.898 43.416,23.917 32.012,22.444 30.434 C 22.092 30.057,21.997 30.098,20.243 31.385 M14.563 39.529 C 14.002 40.761,15.029 43.144,18.890 49.564 C 22.492 55.553,22.814 56.210,22.326 56.567 C 22.016 56.794,21.805 56.785,21.175 56.522 C 20.089 56.068,19.910 55.884,18.949 54.240 C 15.953 49.110,9.705 42.266,8.017 42.266 C 5.154 42.266,6.220 45.183,11.880 52.832 C 14.800 56.778,17.211 60.609,17.211 61.301 C 17.211 61.830,16.175 61.039,13.363 58.362 C 6.138 51.486,4.318 50.053,2.774 50.025 C -0.283 49.970,0.556 51.788,6.488 58.075 C 10.951 62.804,13.504 65.633,13.506 65.850 C 13.514 66.594,11.390 65.614,7.625 63.137 C 2.319 59.646,-0.230 59.020,0.064 61.280 C 0.221 62.488,1.603 63.786,7.474 68.243 C 10.187 70.303,12.853 72.555,14.478 74.161 C 19.583 79.204,28.475 86.928,29.175 86.928 C 30.060 86.928,39.230 80.047,40.418 78.491 C 41.555 77.001,41.704 75.893,41.713 68.845 C 41.729 56.131,39.872 46.841,37.316 46.841 C 35.443 46.841,35.090 47.765,34.837 53.346 C 34.410 62.717,33.644 62.291,22.753 46.627 C 18.633 40.703,17.281 39.219,15.856 39.059 C 14.904 38.951,14.811 38.985,14.563 39.529 M79.637 59.931 C 78.513 62.940,77.180 67.869,77.406 68.183 C 78.045 69.067,88.070 81.264,88.158 81.264 C 88.941 81.264,94.416 76.289,94.300 75.684 C 94.085 74.569,91.331 74.425,89.785 75.448 C 87.630 76.874,85.832 75.566,87.062 73.467 C 88.168 71.580,87.895 70.937,83.126 64.196 C 79.829 59.535,79.799 59.499,79.637 59.931 M58.715 70.261 C 48.429 71.785,45.316 72.820,45.316 74.714 C 45.316 76.522,46.587 76.933,52.723 77.107 C 61.043 77.342,60.719 78.001,47.337 88.063 C 38.885 94.419,38.344 94.929,38.344 96.551 C 38.344 98.854,41.257 97.980,47.712 93.740 C 52.623 90.515,55.105 89.054,55.449 89.186 C 56.397 89.550,55.434 91.635,53.898 92.544 C 48.875 95.513,41.833 102.366,41.831 104.287 C 41.828 106.670,44.439 105.903,49.534 102.024 C 51.074 100.851,53.499 99.006,54.922 97.924 C 57.464 95.991,60.473 94.169,60.719 94.415 C 60.936 94.633,60.217 95.533,56.390 99.834 C 50.083 106.922,48.973 108.741,49.899 110.472 C 50.590 111.763,52.203 110.587,59.066 103.785 C 62.254 100.625,64.975 98.039,65.111 98.039 C 65.872 98.039,65.080 100.002,62.890 103.544 C 59.491 109.043,58.850 111.547,60.840 111.547 C 62.105 111.547,63.319 110.241,67.218 104.684 C 70.278 100.323,71.718 98.463,73.206 96.947 C 75.845 94.257,84.894 83.384,85.618 82.032 C 85.964 81.385,85.506 80.660,81.843 76.060 C 76.609 69.486,76.869 69.622,69.390 69.563 C 63.949 69.520,63.528 69.547,58.715 70.261 M36.272 84.009 C 32.559 86.837,29.494 89.222,29.460 89.310 C 29.237 89.900,33.965 95.643,34.674 95.643 C 35.882 95.643,36.125 92.889,35.090 90.949 C 33.889 88.700,34.989 87.265,37.041 88.402 C 38.583 89.256,39.317 89.282,40.802 88.536 C 42.131 87.869,51.198 81.931,51.198 81.728 C 51.198 81.590,43.609 78.867,43.225 78.867 C 43.114 78.867,39.984 81.181,36.272 84.009 M190.341 115.832 C 189.988 116.185,190.181 131.320,190.541 131.458 C 191.081 131.665,192.361 131.613,192.825 131.365 C 193.344 131.087,193.496 116.459,192.985 115.948 C 192.711 115.674,190.592 115.581,190.341 115.832 M238.615 115.938 C 238.410 116.144,238.344 118.016,238.344 123.674 C 238.344 132.074,238.243 131.594,240.018 131.587 C 241.474 131.581,241.406 132.000,241.343 123.515 L 241.285 115.795 240.086 115.731 C 239.340 115.692,238.783 115.770,238.615 115.938 M249.828 115.822 C 249.743 115.907,249.673 119.429,249.673 123.649 L 249.673 131.322 250.163 131.453 C 250.433 131.525,250.964 131.586,251.344 131.587 C 252.747 131.593,252.723 131.655,252.723 127.958 C 252.723 124.272,252.791 124.010,253.926 123.309 C 255.850 122.120,256.427 123.167,256.427 127.853 C 256.427 131.730,256.368 131.593,258.024 131.587 C 259.563 131.581,259.527 131.699,259.443 126.990 C 259.361 122.368,259.226 121.831,257.901 120.843 C 256.936 120.124,255.037 120.095,253.765 120.779 L 252.736 121.332 252.675 118.563 L 252.614 115.795 251.298 115.732 C 250.574 115.697,249.913 115.737,249.828 115.822 M293.517 115.938 C 293.333 116.122,293.246 117.000,293.246 118.671 C 293.246 120.025,293.218 121.133,293.183 121.133 C 293.149 121.133,292.736 120.937,292.266 120.697 C 289.977 119.530,287.209 120.800,286.456 123.363 C 284.761 129.126,288.911 133.900,292.942 130.826 C 293.604 130.321,293.682 130.304,293.682 130.664 C 293.682 131.277,294.122 131.591,294.978 131.587 C 296.367 131.581,296.307 131.962,296.245 123.515 L 296.187 115.795 294.988 115.731 C 294.242 115.692,293.685 115.770,293.517 115.938 M375.318 115.822 C 375.233 115.907,375.163 119.429,375.163 123.649 L 375.163 131.322 375.654 131.453 C 376.349 131.640,377.619 131.615,377.944 131.409 C 378.159 131.273,378.207 129.546,378.162 123.515 L 378.105 115.795 376.788 115.732 C 376.065 115.697,375.403 115.737,375.318 115.822 M210.683 116.543 C 209.929 117.952,210.628 119.172,212.189 119.172 C 213.677 119.172,214.657 117.062,213.508 116.335 C 212.874 115.935,210.932 116.078,210.683 116.543 M244.204 116.476 C 243.264 117.608,244.042 119.172,245.545 119.172 C 247.076 119.172,248.018 117.386,247.015 116.383 C 246.614 115.982,244.558 116.050,244.204 116.476 M307.516 116.388 C 305.183 117.216,304.370 119.446,305.551 121.778 C 305.849 122.365,306.195 122.909,306.322 122.987 C 306.453 123.068,306.124 123.456,305.562 123.885 C 300.155 128.014,306.713 134.050,313.093 130.817 L 314.144 130.285 314.954 130.834 C 315.919 131.489,316.466 131.646,317.454 131.552 C 318.595 131.443,318.710 129.594,317.604 129.116 C 316.110 128.470,316.042 128.341,316.566 127.157 C 316.851 126.513,317.043 125.592,317.066 124.765 L 317.102 123.420 315.741 123.356 C 314.402 123.292,314.379 123.300,314.379 123.858 C 314.379 124.596,313.934 126.362,313.747 126.362 C 313.572 126.362,311.111 123.895,311.111 123.719 C 311.111 123.651,311.586 123.299,312.166 122.939 C 317.221 119.796,313.337 114.325,307.516 116.388 M358.365 116.476 C 357.426 117.608,358.204 119.172,359.706 119.172 C 361.237 119.172,362.179 117.386,361.176 116.383 C 360.775 115.982,358.719 116.050,358.365 116.476 M327.241 117.140 C 323.695 118.975,324.301 123.028,328.431 125.099 C 330.537 126.154,331.155 126.688,331.155 127.451 C 331.155 129.080,328.865 129.589,326.502 128.485 C 324.949 127.760,324.837 127.816,324.837 129.319 C 324.837 130.767,325.365 131.194,327.662 131.604 C 334.414 132.811,337.149 125.810,331.111 122.770 C 328.681 121.547,328.322 121.250,328.322 120.461 C 328.322 119.109,329.591 118.669,331.478 119.365 C 333.470 120.099,333.433 120.112,333.507 118.693 C 333.591 117.089,333.049 116.739,330.283 116.610 C 328.587 116.532,328.331 116.576,327.241 117.140 M123.239 116.921 C 123.159 117.001,123.094 120.274,123.094 124.194 L 123.094 131.322 123.584 131.453 C 123.853 131.525,124.385 131.586,124.764 131.587 C 126.231 131.594,126.144 132.069,126.144 124.051 L 126.144 116.776 124.764 116.776 C 124.005 116.776,123.319 116.841,123.239 116.921 M201.243 116.912 C 201.056 117.099,201.035 130.542,201.222 131.028 C 201.335 131.324,201.897 131.373,205.242 131.373 L 209.131 131.373 209.264 130.662 C 209.337 130.272,209.295 129.683,209.170 129.355 L 208.943 128.758 206.654 128.758 L 204.364 128.758 204.306 122.821 L 204.248 116.885 202.823 116.821 C 202.039 116.786,201.328 116.827,201.243 116.912 M141.767 118.001 C 141.682 118.086,141.612 118.678,141.612 119.317 L 141.612 120.479 140.860 120.479 C 140.169 120.479,140.095 120.543,139.961 121.259 C 139.750 122.384,140.133 123.094,140.954 123.094 L 141.612 123.094 141.612 126.139 C 141.612 130.680,142.161 131.606,144.860 131.619 C 146.842 131.629,147.553 130.978,147.181 129.495 C 147.049 128.969,146.971 128.934,146.192 129.059 C 144.807 129.280,144.662 128.973,144.662 125.801 L 144.662 123.094 145.756 123.094 C 147.042 123.094,147.435 122.589,147.185 121.259 L 147.039 120.479 145.862 120.479 L 144.684 120.479 144.619 119.227 L 144.553 117.974 143.237 117.910 C 142.513 117.875,141.852 117.916,141.767 118.001 M310.908 118.744 C 311.661 119.147,311.450 120.124,310.418 121.007 C 309.306 121.959,309.251 121.962,308.712 121.078 C 307.608 119.267,309.039 117.744,310.908 118.744 M133.224 120.655 C 132.745 120.880,132.206 121.242,132.026 121.459 C 131.718 121.832,131.693 121.818,131.588 121.221 C 131.482 120.613,131.431 120.588,130.281 120.588 L 129.085 120.588 129.027 125.954 L 128.969 131.320 129.462 131.452 C 129.734 131.525,130.267 131.586,130.647 131.587 C 132.051 131.593,132.026 131.660,132.026 127.912 C 132.026 124.160,132.120 123.830,133.370 123.184 C 135.200 122.237,135.730 123.285,135.730 127.853 C 135.730 131.666,135.703 131.594,137.109 131.587 C 137.489 131.586,138.027 131.523,138.306 131.449 L 138.813 131.313 138.742 127.149 C 138.664 122.572,138.465 121.757,137.203 120.834 C 136.352 120.212,134.361 120.122,133.224 120.655 M151.334 120.582 C 147.796 121.843,146.962 128.771,150.098 130.847 C 152.646 132.532,157.839 131.803,157.692 129.780 C 157.616 128.733,157.553 128.719,155.182 129.207 C 152.966 129.663,151.712 129.079,151.298 127.397 L 151.151 126.797 154.399 126.797 C 158.123 126.797,158.170 126.777,158.170 125.147 C 158.170 121.390,155.002 119.274,151.334 120.582 M162.418 120.523 C 160.268 121.301,159.217 123.824,160.233 125.771 C 160.520 126.321,160.509 126.445,160.123 127.078 C 159.614 127.914,159.569 129.135,160.025 129.785 C 160.327 130.217,160.309 130.322,159.807 131.062 C 158.023 133.690,160.022 135.640,164.334 135.478 C 167.711 135.351,169.281 134.205,169.281 131.866 C 169.281 129.797,168.123 128.991,164.892 128.813 C 162.713 128.693,162.128 128.455,162.383 127.792 C 162.479 127.542,162.657 127.519,163.224 127.681 C 165.786 128.416,168.293 126.681,168.293 124.172 C 168.293 122.989,168.335 122.876,168.764 122.876 C 169.471 122.876,169.891 120.806,169.227 120.599 C 168.487 120.369,163.013 120.308,162.418 120.523 M174.643 120.923 C 173.893 121.581,173.888 121.582,173.818 121.087 C 173.754 120.636,173.632 120.588,172.549 120.588 L 171.351 120.588 171.292 125.911 C 171.228 131.774,171.183 131.581,172.618 131.587 C 174.270 131.594,174.292 131.546,174.292 127.882 L 174.292 124.626 174.928 123.914 C 175.481 123.297,175.704 123.203,176.617 123.203 L 177.669 123.203 177.735 122.041 C 177.847 120.091,176.248 119.513,174.643 120.923 M180.431 120.676 C 179.072 121.146,178.913 121.279,178.848 122.004 C 178.699 123.672,178.988 123.848,180.641 123.098 C 182.634 122.194,184.532 122.707,184.532 124.151 C 184.532 124.771,184.529 124.772,182.779 124.907 C 179.713 125.144,178.463 126.024,178.264 128.086 C 177.988 130.968,181.285 132.781,183.945 131.209 C 184.919 130.633,184.967 130.625,184.967 131.022 C 184.967 131.529,186.357 131.796,187.237 131.458 C 187.658 131.297,187.742 124.235,187.341 122.767 C 186.723 120.508,183.629 119.572,180.431 120.676 M229.412 120.595 C 224.432 122.840,225.525 131.073,230.886 131.693 C 233.464 131.991,235.677 131.258,235.855 130.047 C 236.045 128.749,235.773 128.606,233.996 129.067 C 231.399 129.741,229.837 129.198,229.499 127.505 L 229.357 126.797 232.645 126.797 C 236.467 126.797,236.531 126.761,236.319 124.708 C 235.955 121.180,232.577 119.169,229.412 120.595 M265.140 120.465 C 259.947 122.045,260.119 130.582,265.365 131.596 C 270.242 132.538,273.481 128.581,271.981 123.514 C 271.223 120.955,268.102 119.564,265.140 120.465 M277.265 120.472 C 272.865 121.881,272.418 129.674,276.644 131.304 C 280.979 132.976,284.524 130.503,284.529 125.805 C 284.534 121.548,281.307 119.179,277.265 120.472 M339.432 120.465 C 334.239 122.045,334.412 130.590,339.657 131.593 C 343.874 132.401,346.519 130.172,346.509 125.817 C 346.500 121.480,343.515 119.223,339.432 120.465 M351.307 120.511 C 346.760 122.193,346.999 130.583,351.622 131.569 C 354.255 132.131,356.281 131.232,356.384 129.458 C 356.467 128.030,356.198 127.891,354.793 128.638 C 352.538 129.837,351.307 128.930,351.307 126.069 C 351.307 123.096,352.408 122.138,354.597 123.205 C 356.212 123.993,356.712 123.579,356.317 121.783 C 356.058 120.604,353.092 119.851,351.307 120.511 M366.340 120.395 C 364.457 120.863,363.834 121.382,363.834 122.481 C 363.834 123.573,364.159 123.684,365.684 123.113 C 368.035 122.234,369.499 122.630,369.499 124.146 C 369.499 124.825,369.482 124.837,368.455 124.837 C 365.804 124.837,363.822 125.877,363.386 127.498 C 362.540 130.641,366.165 132.904,369.224 131.143 C 369.916 130.745,369.933 130.745,370.157 131.164 C 370.388 131.595,371.450 131.748,372.204 131.458 C 372.716 131.262,372.713 123.512,372.200 122.231 C 371.587 120.698,368.727 119.802,366.340 120.395 M210.830 120.615 C 210.745 120.700,210.675 123.145,210.675 126.048 C 210.675 131.905,210.590 131.590,212.177 131.590 C 213.764 131.590,213.741 131.679,213.675 125.817 L 213.617 120.588 212.300 120.525 C 211.577 120.490,210.915 120.530,210.830 120.615 M215.119 120.787 C 214.918 121.311,218.271 131.123,218.736 131.372 C 219.170 131.605,221.166 131.663,221.903 131.465 C 222.405 131.331,225.860 121.407,225.622 120.786 C 225.524 120.532,225.188 120.473,224.135 120.523 L 222.775 120.588 221.766 123.893 C 221.211 125.710,220.684 127.377,220.593 127.596 C 220.402 128.061,220.555 128.453,219.070 123.693 L 218.067 120.479 216.652 120.479 C 215.635 120.479,215.204 120.566,215.119 120.787 M244.281 120.619 C 244.074 120.706,244.009 121.981,244.009 125.936 C 244.009 131.787,243.952 131.594,245.683 131.587 C 247.118 131.581,247.073 131.774,247.008 125.911 L 246.950 120.588 245.752 120.546 C 245.093 120.523,244.431 120.556,244.281 120.619 M358.442 120.619 C 358.235 120.706,358.170 121.981,358.170 125.936 C 358.170 131.787,358.113 131.594,359.844 131.587 C 361.279 131.581,361.234 131.774,361.170 125.911 L 361.111 120.588 359.913 120.546 C 359.254 120.523,358.592 120.556,358.442 120.619 M154.585 122.975 C 154.879 123.269,155.120 123.653,155.120 123.828 C 155.120 124.004,155.179 124.302,155.252 124.492 C 155.367 124.791,155.110 124.837,153.291 124.837 C 152.140 124.837,151.198 124.784,151.198 124.721 C 151.198 122.993,153.445 121.835,154.585 122.975 M165.093 122.779 C 165.452 123.030,165.577 123.337,165.577 123.962 C 165.577 125.531,163.902 126.196,162.908 125.021 C 161.748 123.650,163.609 121.740,165.093 122.779 M232.319 122.682 C 232.882 122.939,233.333 123.707,233.333 124.411 C 233.333 124.802,233.172 124.837,231.373 124.837 C 230.294 124.837,229.412 124.753,229.412 124.651 C 229.412 123.130,230.976 122.070,232.319 122.682 M267.954 122.974 C 269.557 123.804,269.580 128.116,267.986 128.970 C 266.687 129.664,265.096 128.900,264.688 127.385 C 263.868 124.347,265.735 121.827,267.954 122.974 M280.367 123.013 C 281.347 123.700,281.840 126.262,281.277 127.743 C 280.567 129.609,277.958 129.765,277.215 127.985 C 275.953 124.965,278.167 121.473,280.367 123.013 M342.234 122.968 C 343.275 123.507,343.812 125.536,343.359 127.219 C 342.565 130.166,339.272 129.834,338.889 126.768 C 338.519 123.804,340.187 121.910,342.234 122.968 M292.476 123.552 C 294.098 124.976,293.397 128.602,291.403 129.102 C 289.946 129.468,288.797 127.191,289.309 124.952 C 289.787 122.863,291.054 122.303,292.476 123.552 M309.820 126.852 C 311.791 128.655,311.781 128.634,310.861 128.955 C 308.163 129.895,305.968 127.948,307.422 125.905 C 308.000 125.094,307.820 125.023,309.820 126.852 M184.532 127.653 C 184.532 128.726,183.773 129.412,182.585 129.412 C 180.850 129.412,180.748 127.372,182.462 126.954 C 184.009 126.577,184.532 126.754,184.532 127.653 M369.499 127.635 C 369.499 129.400,366.726 130.264,366.315 128.628 C 366.048 127.563,367.008 126.823,368.682 126.806 C 369.486 126.798,369.499 126.811,369.499 127.635 M165.959 131.429 C 166.914 132.182,165.827 133.333,164.161 133.333 C 162.327 133.333,161.680 132.608,162.539 131.515 C 163.009 130.918,165.239 130.862,165.959 131.429 M258.660 143.930 C 258.450 144.019,258.388 145.771,258.388 151.644 C 258.388 160.162,258.295 159.695,259.990 159.695 C 261.475 159.695,261.438 159.789,261.438 155.985 L 261.438 152.539 262.108 151.869 C 264.250 149.727,265.142 150.937,265.142 155.982 C 265.142 159.832,265.084 159.698,266.739 159.692 C 268.270 159.686,268.234 159.804,268.154 155.096 C 268.076 150.471,267.942 149.937,266.615 148.948 C 265.651 148.229,263.752 148.199,262.479 148.884 L 261.451 149.436 261.390 146.668 L 261.329 143.900 260.131 143.858 C 259.472 143.834,258.810 143.867,258.660 143.930 M347.985 143.935 C 347.787 144.015,347.712 144.793,347.712 146.765 L 347.712 149.485 347.031 149.000 C 344.828 147.431,341.681 148.726,340.831 151.550 C 339.135 157.188,342.945 161.697,347.151 159.030 L 348.148 158.397 348.148 158.914 C 348.148 159.619,349.365 159.967,350.418 159.563 C 350.942 159.362,350.942 144.124,350.418 143.923 C 350.014 143.768,348.379 143.776,347.985 143.935 M270.850 144.488 C 270.468 144.870,270.523 146.527,270.931 146.934 C 272.331 148.335,274.847 146.420,273.769 144.774 C 273.368 144.162,271.371 143.967,270.850 144.488 M372.526 144.581 C 371.587 145.713,372.365 147.277,373.867 147.277 C 375.399 147.277,376.340 145.491,375.338 144.488 C 374.936 144.087,372.880 144.155,372.526 144.581 M123.335 145.179 C 123.159 145.391,123.104 147.479,123.145 152.423 L 123.203 159.368 127.451 159.368 L 131.699 159.368 131.699 158.279 L 131.699 157.190 128.922 157.129 L 126.144 157.068 126.144 155.121 L 126.144 153.174 128.486 153.112 L 130.828 153.050 130.828 151.961 L 130.828 150.871 128.486 150.810 L 126.144 150.748 126.144 149.019 L 126.144 147.290 128.922 147.229 L 131.699 147.168 131.771 146.542 C 131.810 146.198,131.784 145.684,131.712 145.399 L 131.582 144.880 127.582 144.880 C 124.462 144.880,123.528 144.946,123.335 145.179 M294.263 145.025 C 294.183 145.105,294.118 148.379,294.118 152.301 C 294.118 160.158,294.032 159.698,295.497 159.692 C 297.200 159.685,297.168 159.743,297.168 156.627 L 297.168 153.827 299.495 153.766 L 301.821 153.704 301.989 153.076 C 302.081 152.731,302.100 152.167,302.031 151.823 L 301.906 151.198 299.537 151.198 L 297.168 151.198 297.168 149.346 L 297.168 147.495 299.650 147.495 C 302.348 147.495,302.397 147.472,302.397 146.187 C 302.397 144.852,302.486 144.880,298.270 144.880 C 296.146 144.880,294.343 144.946,294.263 145.025 M146.778 146.106 C 146.693 146.190,146.623 146.777,146.623 147.408 C 146.623 148.544,146.616 148.557,145.915 148.625 C 145.210 148.692,145.207 148.698,145.207 149.891 C 145.207 151.084,145.210 151.090,145.915 151.158 L 146.623 151.226 146.624 154.099 C 146.626 158.366,147.084 159.385,149.140 159.697 C 151.387 160.038,152.279 159.550,152.284 157.977 L 152.288 157.021 151.334 157.152 C 149.830 157.358,149.673 157.047,149.673 153.850 L 149.673 151.198 150.719 151.198 C 151.946 151.198,152.288 150.932,152.288 149.974 C 152.288 148.733,152.134 148.584,150.859 148.584 L 149.695 148.584 149.630 147.331 L 149.564 146.078 148.248 146.015 C 147.524 145.980,146.863 146.021,146.778 146.106 M365.078 146.106 C 364.993 146.190,364.924 146.777,364.924 147.408 C 364.924 148.544,364.916 148.557,364.216 148.625 C 363.511 148.692,363.508 148.698,363.508 149.891 C 363.508 151.084,363.511 151.090,364.216 151.158 L 364.924 151.226 364.925 154.099 C 364.927 159.021,365.938 160.306,369.323 159.687 C 370.981 159.384,371.214 157.190,369.589 157.190 C 368.081 157.190,367.974 156.971,367.974 153.895 L 367.974 151.198 369.020 151.198 C 370.247 151.198,370.588 150.932,370.588 149.974 C 370.588 148.733,370.435 148.584,369.160 148.584 L 367.996 148.584 367.930 147.331 L 367.865 146.078 366.549 146.015 C 365.825 145.980,365.163 146.021,365.078 146.106 M138.569 148.597 C 138.273 148.721,137.709 149.068,137.316 149.368 L 136.601 149.913 136.601 149.238 L 136.601 148.562 135.349 148.627 L 134.096 148.693 134.037 153.922 C 133.972 159.783,133.949 159.695,135.536 159.695 C 137.081 159.695,137.037 159.804,137.037 155.993 L 137.037 152.556 137.909 151.768 C 139.995 149.884,140.741 150.905,140.741 155.647 C 140.741 159.668,140.751 159.695,142.343 159.695 C 143.845 159.695,143.791 159.857,143.791 155.361 C 143.791 150.862,143.559 149.917,142.214 148.938 C 141.526 148.436,139.418 148.239,138.569 148.597 M157.517 149.154 L 156.645 149.942 156.645 149.252 L 156.645 148.562 155.392 148.627 L 154.139 148.693 154.081 153.922 C 154.015 159.783,153.992 159.695,155.579 159.695 C 157.118 159.695,157.081 159.783,157.081 156.186 L 157.081 152.942 157.885 152.052 C 158.645 151.211,158.741 151.169,159.601 151.298 C 160.641 151.454,160.784 151.283,160.784 149.889 C 160.784 148.157,159.051 147.768,157.517 149.154 M164.488 148.713 C 160.992 150.227,160.257 156.879,163.358 158.931 C 165.964 160.656,171.024 159.918,171.024 157.814 C 171.024 156.844,170.814 156.779,169.063 157.205 C 166.463 157.836,164.909 157.284,164.575 155.610 L 164.434 154.902 167.702 154.902 C 171.601 154.902,171.585 154.911,171.391 152.836 C 171.053 149.223,167.799 147.279,164.488 148.713 M178.214 148.513 C 178.034 148.588,177.470 148.933,176.961 149.280 L 176.035 149.912 176.035 149.248 C 176.035 148.588,176.027 148.584,174.837 148.584 L 173.638 148.584 173.638 155.991 L 173.638 163.399 175.054 163.399 L 176.471 163.399 176.471 161.009 L 176.471 158.619 177.255 159.151 C 180.826 161.574,184.527 157.785,183.687 152.565 C 183.174 149.383,180.640 147.507,178.214 148.513 M189.590 148.804 C 189.196 149.044,188.807 149.411,188.724 149.620 C 188.607 149.917,188.549 149.858,188.457 149.346 C 188.344 148.714,188.302 148.693,187.144 148.693 L 185.948 148.693 185.889 154.015 C 185.825 159.913,185.768 159.686,187.292 159.692 C 188.943 159.698,188.889 159.819,188.889 156.092 L 188.889 152.754 189.637 151.961 C 190.347 151.208,190.437 151.175,191.380 151.316 L 192.375 151.466 192.375 150.048 C 192.375 148.956,192.295 148.600,192.030 148.498 C 191.358 148.240,190.295 148.373,189.590 148.804 M195.948 148.888 C 193.681 149.943,192.571 153.444,193.474 156.693 C 194.126 159.042,196.924 160.292,200.202 159.698 C 202.410 159.297,202.614 159.147,202.614 157.917 C 202.614 156.699,202.556 156.678,200.710 157.214 C 198.395 157.887,196.296 157.045,196.296 155.443 L 196.296 154.902 199.570 154.902 L 202.843 154.902 203.053 154.349 C 203.331 153.618,202.986 151.199,202.483 150.347 C 201.363 148.451,198.337 147.775,195.948 148.888 M209.810 148.597 C 209.514 148.721,208.957 149.063,208.572 149.357 L 207.872 149.891 207.803 149.292 C 207.737 148.719,207.681 148.693,206.536 148.693 L 205.338 148.693 205.279 153.922 C 205.214 159.783,205.191 159.695,206.778 159.695 C 208.323 159.695,208.279 159.805,208.279 155.985 L 208.279 152.539 208.949 151.869 C 211.090 149.727,211.983 150.937,211.983 155.982 C 211.983 159.832,211.925 159.698,213.580 159.692 C 215.111 159.686,215.075 159.804,214.995 155.096 C 214.917 150.471,214.783 149.937,213.456 148.948 C 212.770 148.436,210.672 148.234,209.810 148.597 M220.153 148.693 C 216.617 149.944,215.800 156.871,218.943 158.951 C 221.397 160.575,226.397 159.950,226.538 158.003 C 226.622 156.845,226.401 156.745,224.722 157.182 C 222.322 157.807,220.924 157.458,220.353 156.093 C 219.848 154.884,219.805 154.902,223.268 154.902 C 226.924 154.902,227.016 154.865,227.014 153.388 C 227.009 149.505,223.890 147.371,220.153 148.693 M245.224 148.789 C 244.873 149.020,244.484 149.387,244.359 149.604 C 244.158 149.954,244.118 149.925,244.014 149.346 C 243.899 148.714,243.857 148.693,242.699 148.693 L 241.503 148.693 241.445 154.059 L 241.387 159.424 241.881 159.557 C 242.152 159.629,242.685 159.690,243.065 159.692 C 244.466 159.698,244.444 159.755,244.444 156.110 L 244.444 152.790 245.237 151.974 C 245.976 151.213,246.093 151.167,246.959 151.297 L 247.889 151.437 248.036 150.564 C 248.377 148.547,246.954 147.648,245.224 148.789 M251.191 148.558 C 247.792 149.671,247.922 153.363,251.416 154.955 C 253.564 155.934,253.985 156.442,253.252 157.174 C 252.779 157.647,251.296 157.601,250.140 157.076 C 248.829 156.481,248.802 156.496,248.802 157.810 C 248.802 159.115,249.293 159.500,251.352 159.810 C 256.537 160.590,258.616 154.996,253.869 153.038 C 250.923 151.823,250.957 149.851,253.908 150.744 C 255.976 151.370,255.991 151.366,255.991 150.248 C 255.991 148.727,253.429 147.826,251.191 148.558 M280.828 148.641 C 280.528 148.804,280.025 149.107,279.710 149.314 C 279.146 149.683,279.134 149.681,278.998 149.137 C 278.870 148.629,278.761 148.584,277.665 148.584 L 276.471 148.584 276.471 156.001 L 276.471 163.419 277.941 163.354 L 279.412 163.290 279.473 161.090 L 279.535 158.890 280.563 159.417 C 284.760 161.569,288.356 155.542,285.928 150.426 C 285.126 148.735,282.404 147.782,280.828 148.641 M307.188 148.570 C 304.245 149.465,302.911 152.418,303.729 156.230 C 304.766 161.070,312.619 161.117,314.071 156.293 C 315.619 151.147,312.015 147.101,307.188 148.570 M332.882 148.784 C 332.454 149.017,331.964 149.377,331.793 149.584 C 331.506 149.929,331.473 149.908,331.370 149.326 C 331.264 148.717,331.213 148.693,330.063 148.693 L 328.867 148.693 328.809 154.015 C 328.745 159.845,328.710 159.688,330.065 159.689 C 331.885 159.690,331.808 159.857,331.808 155.895 C 331.808 152.037,331.831 151.965,333.299 151.207 C 334.956 150.352,335.512 151.574,335.512 156.070 C 335.512 159.796,335.470 159.695,337.013 159.695 C 338.601 159.695,338.623 159.628,338.524 155.105 C 338.426 150.642,338.230 149.869,336.965 148.968 C 336.022 148.297,333.950 148.203,332.882 148.784 M355.229 148.669 C 353.565 149.193,353.377 149.373,353.377 150.450 C 353.377 151.687,353.699 151.830,355.110 151.223 C 357.317 150.274,359.041 150.748,359.041 152.304 C 359.041 152.865,359.004 152.879,357.247 153.015 C 354.180 153.251,352.724 154.386,352.724 156.539 C 352.723 159.203,355.880 160.706,358.551 159.313 C 359.249 158.950,359.477 158.904,359.477 159.131 C 359.477 159.634,360.870 159.899,361.747 159.563 C 362.154 159.406,362.259 152.136,361.874 150.750 C 361.312 148.728,358.169 147.744,355.229 148.669 M380.803 148.654 C 376.594 150.227,376.106 157.275,380.065 159.315 C 382.017 160.321,385.576 159.785,386.891 158.288 C 389.120 155.749,388.630 150.492,386.029 149.030 C 384.876 148.382,382.070 148.180,380.803 148.654 M394.513 148.809 C 394.071 149.043,393.649 149.332,393.574 149.453 C 393.343 149.827,393.062 149.697,392.989 149.183 C 392.926 148.743,392.798 148.693,391.721 148.693 L 390.523 148.693 390.464 154.015 C 390.400 159.879,390.355 159.686,391.790 159.692 C 393.453 159.698,393.464 159.672,393.464 155.807 L 393.464 152.369 394.063 151.799 C 394.972 150.935,395.676 150.843,396.429 151.490 L 397.059 152.032 397.136 155.700 C 397.220 159.688,397.220 159.686,398.512 159.692 C 400.062 159.698,400.000 159.883,400.000 155.252 C 400.000 151.346,399.968 151.010,399.510 150.117 C 398.648 148.436,396.356 147.836,394.513 148.809 M229.112 148.919 C 228.897 149.479,228.956 155.093,229.192 156.535 C 229.695 159.604,232.358 160.772,235.045 159.102 L 236.166 158.406 236.166 158.918 C 236.166 159.492,236.530 159.697,237.545 159.692 C 238.818 159.686,238.793 159.805,238.729 154.015 L 238.671 148.693 237.255 148.693 L 235.839 148.693 235.779 152.212 L 235.719 155.732 235.030 156.406 C 233.042 158.350,232.173 157.162,232.026 152.298 L 231.917 148.693 230.583 148.629 C 229.512 148.577,229.221 148.635,229.112 148.919 M270.951 148.729 C 270.601 149.079,270.792 159.425,271.151 159.563 C 271.691 159.770,272.971 159.718,273.435 159.469 C 274.024 159.154,274.097 148.941,273.512 148.716 C 273.047 148.538,271.133 148.548,270.951 148.729 M316.494 148.720 C 316.248 148.966,316.316 155.857,316.576 157.072 C 317.145 159.724,320.039 160.683,322.489 159.030 C 323.418 158.404,323.421 158.404,323.497 158.885 C 323.595 159.508,323.897 159.688,324.837 159.688 C 326.192 159.688,326.157 159.845,326.093 154.015 L 326.035 148.693 324.619 148.693 L 323.203 148.693 323.143 152.215 L 323.083 155.738 322.318 156.409 C 320.256 158.220,319.530 157.234,319.390 152.429 L 319.281 148.693 317.965 148.629 C 317.241 148.594,316.579 148.635,316.494 148.720 M372.486 148.720 C 372.401 148.805,372.331 151.208,372.331 154.059 C 372.331 159.889,372.275 159.699,374.005 159.692 C 375.440 159.686,375.395 159.879,375.331 154.015 L 375.272 148.693 373.956 148.629 C 373.232 148.594,372.571 148.635,372.486 148.720 M167.419 150.680 C 167.845 150.843,168.410 151.878,168.410 152.495 C 168.410 152.912,168.280 152.941,166.449 152.941 C 164.323 152.941,164.277 152.908,164.826 151.750 C 165.299 150.752,166.412 150.293,167.419 150.680 M199.581 151.181 C 199.955 151.556,200.218 152.050,200.218 152.380 L 200.218 152.941 198.257 152.941 C 196.097 152.941,195.991 152.856,196.623 151.634 C 197.276 150.370,198.572 150.172,199.581 151.181 M223.430 151.079 C 223.764 151.413,223.965 151.864,223.965 152.278 L 223.965 152.941 222.000 152.941 L 220.035 152.941 220.169 152.342 C 220.519 150.780,222.402 150.051,223.430 151.079 M310.441 151.292 C 311.651 152.387,311.570 155.863,310.312 156.853 C 308.249 158.475,306.108 156.162,306.761 153.016 C 307.179 151.001,309.117 150.094,310.441 151.292 M384.258 151.242 C 385.100 151.940,385.472 154.334,384.953 155.705 C 384.191 157.715,381.697 157.953,380.918 156.090 C 379.604 152.944,382.043 149.405,384.258 151.242 M179.553 151.216 C 181.015 151.998,180.937 155.992,179.441 156.973 C 178.768 157.414,178.228 157.271,177.219 156.385 C 175.150 154.569,177.227 149.971,179.553 151.216 M282.386 151.216 C 283.847 151.998,283.769 155.992,282.273 156.973 C 280.078 158.411,278.234 153.463,280.291 151.657 C 281.102 150.944,281.659 150.827,282.386 151.216 M346.900 151.650 C 348.573 153.029,347.868 156.559,345.795 157.184 C 344.167 157.675,342.971 154.605,343.907 152.335 C 344.538 150.803,345.583 150.564,346.900 151.650 M359.041 155.758 C 359.041 156.831,358.282 157.516,357.095 157.516 C 355.360 157.516,355.257 155.476,356.972 155.059 C 358.519 154.682,359.041 154.858,359.041 155.758 " stroke="none" fill="#fff" fill-rule="evenodd"></path></g></svg>