<svg id="svg" xmlns="http://www.w3.org/2000/svg" xmlns:xlink="http://www.w3.org/1999/xlink" width="400" height="273.13432835820896" viewBox="0, 0, 400,273.13432835820896"><g id="svgg"><path id="path0" d="M134.407 1.399 C 132.486 5.670,133.969 12.169,138.642 19.963 C 142.669 26.678,144.372 29.740,145.072 31.522 C 145.883 33.588,146.801 33.224,148.314 30.237 C 153.310 20.379,145.136 0.000,136.187 0.000 C 135.218 0.000,134.937 0.221,134.407 1.399 M162.687 2.971 C 158.117 5.420,154.404 12.362,152.436 22.139 C 151.099 28.782,150.817 33.375,151.686 34.336 C 152.587 35.332,152.835 35.092,157.250 28.945 C 166.831 15.605,169.515 7.405,165.608 3.409 C 164.279 2.049,164.379 2.065,162.687 2.971 M121.828 14.482 C 120.101 15.296,117.909 17.413,117.914 18.261 C 117.932 21.197,123.265 26.253,129.943 29.664 C 136.022 32.770,138.897 34.447,140.921 36.068 C 144.710 39.103,145.132 37.602,142.170 31.624 C 135.853 18.872,127.480 11.817,121.828 14.482 M177.658 16.834 C 171.759 17.826,156.343 31.815,156.343 36.177 C 156.343 38.780,157.403 39.154,159.767 37.387 C 162.166 35.595,164.361 34.475,169.879 32.226 C 178.266 28.809,183.400 25.085,185.637 20.797 C 187.144 17.907,183.132 15.914,177.658 16.834 M117.351 34.481 C 113.059 35.321,110.455 36.483,108.489 38.433 C 106.283 40.622,106.286 40.937,108.528 42.465 C 112.533 45.194,118.673 45.443,129.664 43.321 C 132.948 42.687,136.936 42.059,138.526 41.926 C 140.117 41.793,141.418 41.616,141.418 41.532 C 141.418 36.654,127.331 32.528,117.351 34.481 M147.403 35.616 C 147.052 36.039,147.054 36.469,147.410 37.575 C 147.661 38.355,147.922 39.202,147.989 39.459 C 148.280 40.573,152.612 38.242,152.612 36.971 C 152.612 35.924,148.118 34.755,147.403 35.616 M170.336 37.488 C 158.556 39.652,155.707 41.608,162.313 42.994 C 163.853 43.318,168.052 44.678,171.646 46.018 C 180.708 49.397,185.372 50.014,189.338 48.357 L 190.672 47.799 190.672 45.340 C 190.672 38.274,182.735 35.209,170.336 37.488 M152.832 40.327 C 150.962 42.550,152.423 45.845,154.746 44.644 C 157.684 43.124,158.167 41.079,155.852 39.959 C 153.833 38.981,153.979 38.963,152.832 40.327 M147.671 41.238 C 145.330 42.829,145.702 45.547,148.256 45.517 C 150.101 45.496,150.373 45.132,150.373 42.680 C 150.373 39.901,149.962 39.682,147.671 41.238 M138.208 45.337 C 125.339 49.292,114.412 57.335,115.360 62.157 C 116.367 67.281,126.448 64.054,135.392 55.745 C 147.014 44.948,147.698 42.421,138.208 45.337 M155.877 46.887 C 154.556 47.435,153.997 48.134,154.880 48.134 C 155.102 48.134,159.006 51.891,163.556 56.481 C 173.315 66.328,175.306 67.659,180.346 67.701 C 182.924 67.723,183.027 67.690,183.154 66.791 C 184.448 57.623,164.712 43.223,155.877 46.887 M145.522 48.113 C 145.215 48.496,144.018 49.959,142.864 51.364 C 134.815 61.157,130.514 72.541,132.772 78.078 C 133.746 80.467,138.412 79.027,140.861 75.583 C 143.829 71.407,148.132 55.447,148.134 48.601 C 148.134 47.166,146.524 46.865,145.522 48.113 M151.077 53.451 C 151.978 56.028,152.019 56.504,151.948 63.433 C 151.843 73.659,152.654 77.053,155.881 79.887 L 157.139 80.990 158.646 80.143 C 167.171 75.352,160.709 50.746,150.925 50.746 L 150.132 50.746 151.077 53.451 M46.888 56.389 C 42.276 65.892,44.608 80.612,53.591 98.694 C 57.503 106.569,58.932 108.691,60.586 109.082 C 62.454 109.524,62.397 109.663,62.726 103.825 C 64.510 72.205,60.211 55.503,50.051 54.582 L 47.862 54.383 46.888 56.389 M86.567 57.107 C 80.941 59.126,77.990 62.415,75.034 69.963 C 67.658 88.797,65.357 105.530,69.738 108.476 C 72.102 110.065,72.860 109.724,73.855 106.623 C 75.237 102.313,77.913 97.375,83.209 89.366 C 90.607 78.175,92.841 73.176,93.676 65.939 C 94.713 56.951,92.984 54.804,86.567 57.107 M11.095 75.779 C 7.897 76.532,6.663 77.492,6.920 79.026 C 8.656 89.407,14.637 94.683,35.410 104.159 C 43.004 107.623,45.964 109.167,49.252 111.380 C 51.686 113.018,51.920 112.842,52.154 109.201 C 53.171 93.354,26.981 72.036,11.095 75.779 M109.142 82.996 C 101.844 85.059,92.769 91.608,84.388 100.857 C 74.806 111.432,73.805 115.056,81.472 111.421 C 85.032 109.733,88.932 108.564,98.321 106.368 C 102.631 105.361,107.794 103.962,109.796 103.259 L 113.435 101.983 109.783 105.749 C 107.774 107.820,105.587 110.279,104.921 111.213 L 103.712 112.911 98.964 113.344 C 88.013 114.343,80.117 117.850,77.567 122.849 C 76.654 124.639,76.266 124.408,81.027 124.918 C 83.213 125.152,87.853 125.971,91.338 126.737 L 97.674 128.131 97.624 130.577 C 97.597 131.922,97.706 133.899,97.866 134.971 L 98.157 136.920 93.948 134.721 C 86.301 130.725,80.283 129.717,75.840 131.686 C 73.442 132.749,73.440 132.722,75.986 134.328 C 79.402 136.485,83.303 140.937,87.710 147.710 C 97.081 162.116,100.322 165.172,107.559 166.430 C 110.634 166.965,110.956 166.855,111.934 164.937 C 115.062 158.807,112.572 151.002,104.843 142.708 C 102.923 140.648,101.843 135.860,102.328 131.561 C 102.589 129.240,102.284 129.318,107.598 130.215 C 117.774 131.934,125.955 131.012,130.733 127.610 C 133.960 125.311,133.798 125.619,132.726 123.806 C 130.005 119.203,123.447 115.611,115.076 114.139 C 111.549 113.518,111.546 113.497,114.625 110.631 C 130.872 95.508,156.311 85.612,159.838 93.044 C 161.624 96.808,160.828 98.781,143.171 134.328 C 120.751 179.465,111.896 199.561,108.377 213.294 C 106.110 222.139,107.113 225.000,112.482 225.000 C 117.026 225.000,116.522 225.914,130.356 192.537 C 136.973 176.574,139.669 171.202,145.130 163.104 C 160.036 141.001,179.493 119.359,193.852 108.910 C 199.452 104.836,199.370 105.582,193.029 116.418 C 167.179 160.595,153.411 200.916,164.176 200.916 C 166.755 200.916,167.778 199.673,179.291 182.564 C 203.811 146.123,223.513 121.442,235.155 112.579 C 236.943 111.218,238.473 110.223,238.554 110.369 C 238.832 110.872,232.761 121.863,224.289 136.194 C 213.722 154.071,203.412 177.965,199.252 194.216 C 193.441 216.924,199.175 236.296,211.984 237.227 C 218.621 237.710,222.668 233.420,226.862 221.455 C 228.918 215.590,232.303 199.515,231.901 197.522 C 231.360 194.838,231.327 194.776,230.434 194.776 C 229.345 194.776,228.817 196.101,227.609 201.866 C 225.024 214.199,219.039 226.991,214.847 229.141 C 205.207 234.084,205.033 210.176,214.522 184.598 C 218.061 175.056,230.604 149.479,239.173 134.328 C 254.333 107.526,256.573 101.206,252.500 96.735 C 250.511 94.551,244.022 96.480,238.516 100.894 C 236.931 102.164,233.944 104.492,231.878 106.067 C 222.238 113.416,205.387 132.889,190.956 153.358 C 184.361 162.714,182.541 164.369,185.644 158.190 C 186.598 156.289,188.017 153.291,188.795 151.528 C 189.574 149.764,192.346 143.787,194.956 138.246 C 203.260 120.614,207.837 108.769,207.836 104.913 C 207.835 103.619,205.921 99.584,204.821 98.560 C 199.377 93.488,170.531 117.812,153.996 141.420 C 153.683 141.866,153.166 142.175,152.847 142.105 C 152.396 142.006,152.931 140.729,155.239 136.393 C 168.707 111.086,171.259 94.063,162.775 86.126 C 157.523 81.214,141.344 84.081,127.146 92.440 C 123.617 94.517,123.478 94.544,124.675 92.925 L 125.469 91.851 124.631 90.120 C 121.592 83.843,115.713 81.139,109.142 82.996 M11.381 104.365 C 4.735 105.249,0.838 109.346,0.159 116.163 L -0.071 118.470 1.924 119.639 C 8.817 123.680,15.333 124.300,30.136 122.327 C 36.683 121.454,40.647 121.128,45.336 121.077 C 53.026 120.995,52.498 121.059,52.987 120.145 C 53.351 119.466,53.011 119.150,49.382 116.788 C 36.692 108.527,20.324 103.176,11.381 104.365 M62.995 111.757 C 62.891 111.861,61.596 112.098,60.119 112.283 C 55.568 112.855,54.983 114.556,58.286 117.608 C 60.476 119.632,61.088 119.775,62.254 118.533 C 62.900 117.846,64.179 113.319,64.179 111.721 C 64.179 111.501,63.221 111.530,62.995 111.757 M71.455 113.102 C 70.840 113.296,69.893 113.373,69.353 113.275 C 66.816 112.812,67.394 120.033,69.981 121.114 C 73.687 122.662,76.196 119.132,75.140 113.853 C 74.884 112.573,73.826 112.358,71.455 113.102 M62.084 121.420 C 60.163 125.464,60.344 126.924,62.826 127.403 C 64.929 127.809,66.718 127.082,68.043 125.284 L 68.796 124.263 68.040 123.419 C 67.625 122.955,66.919 121.962,66.472 121.214 C 65.755 120.015,64.237 118.657,63.614 118.657 C 63.494 118.657,62.806 119.900,62.084 121.420 M43.657 126.000 C 26.895 127.724,6.191 144.466,5.854 156.568 C 5.772 159.536,5.960 159.688,9.716 159.696 C 18.144 159.713,23.983 156.120,38.350 142.077 C 43.333 137.206,48.744 132.187,50.374 130.924 C 52.004 129.660,53.247 128.480,53.136 128.301 C 52.549 127.352,46.391 125.430,45.149 125.809 C 45.047 125.840,44.375 125.926,43.657 126.000 M59.808 129.373 C 57.114 129.709,46.249 143.954,41.286 153.658 C 35.206 165.544,33.814 179.840,38.657 180.655 C 47.256 182.100,54.714 170.650,58.745 149.813 C 61.940 133.299,62.504 129.032,61.474 129.164 C 61.217 129.197,60.468 129.291,59.808 129.373 M66.503 131.257 C 63.081 134.221,63.530 161.561,67.180 172.511 C 69.177 178.504,74.546 186.194,76.733 186.194 C 78.777 186.194,82.213 182.792,83.139 179.851 C 85.747 171.562,82.572 160.393,69.920 133.360 C 68.520 130.368,67.941 130.011,66.503 131.257 M256.455 155.317 C 252.459 159.517,251.785 166.032,255.078 168.622 C 259.540 172.132,267.563 162.178,264.714 156.669 C 263.356 154.042,258.435 153.237,256.455 155.317 M279.621 165.765 C 274.223 169.975,271.182 180.878,273.432 187.958 L 274.170 190.282 270.160 194.156 C 264.273 199.844,256.279 206.341,249.727 210.762 C 247.496 212.269,246.480 212.473,245.081 211.696 C 244.489 211.367,246.475 205.993,249.970 198.471 C 256.196 185.070,257.666 179.533,255.904 176.119 C 253.706 171.861,249.644 173.026,245.872 178.999 C 232.749 199.777,232.107 219.802,244.563 219.772 C 249.271 219.761,265.902 206.916,275.850 195.606 C 277.036 194.258,277.366 194.071,277.978 194.399 C 278.376 194.612,279.598 194.994,280.693 195.248 L 282.683 195.709 281.841 200.000 C 280.268 208.015,279.998 211.759,280.727 215.466 C 284.507 234.708,301.498 227.594,315.879 200.746 C 317.473 197.771,318.801 195.299,318.830 195.254 C 318.859 195.209,319.474 195.268,320.197 195.386 L 321.512 195.599 320.415 201.251 C 317.874 214.354,319.781 222.768,325.970 225.764 C 330.420 227.918,334.303 226.183,341.881 218.655 L 347.381 213.191 348.224 214.109 C 350.464 216.548,353.797 217.098,359.870 216.033 C 365.445 215.056,365.405 215.045,366.259 217.760 C 368.596 225.190,371.526 225.071,383.823 217.045 C 385.025 216.261,388.610 213.959,391.791 211.930 C 398.647 207.557,400.000 206.389,400.000 204.841 C 400.000 203.129,398.956 203.390,393.097 206.568 C 383.555 211.744,374.169 216.084,373.646 215.562 C 372.907 214.823,375.909 207.986,379.373 202.518 C 385.128 193.432,376.143 190.712,369.876 199.643 C 366.181 204.909,365.169 205.846,361.002 207.856 C 355.323 210.595,354.534 210.221,355.754 205.366 C 359.254 191.431,376.646 177.738,377.857 187.964 C 378.299 191.701,380.905 193.324,382.259 190.705 C 385.950 183.568,381.308 173.507,374.325 173.507 C 361.573 173.507,345.149 191.381,345.149 205.260 C 345.149 209.254,332.232 220.517,330.309 218.200 C 326.422 213.516,329.615 199.531,336.061 193.011 C 339.220 189.816,339.787 188.238,339.435 183.623 C 338.645 173.282,334.241 173.199,327.355 183.396 C 323.188 189.567,319.829 191.546,321.486 186.854 C 324.461 178.433,325.608 171.207,324.421 168.365 C 322.839 164.579,320.473 163.930,317.655 166.511 C 311.186 172.437,309.473 185.866,314.368 192.278 L 315.696 194.016 312.642 198.221 C 301.849 213.083,293.671 220.812,291.503 218.200 C 287.616 213.516,290.809 199.531,297.255 193.011 C 300.414 189.816,300.981 188.238,300.629 183.623 C 299.921 174.352,295.787 173.303,290.278 180.995 C 285.164 188.134,283.649 189.801,282.629 189.410 C 282.252 189.265,282.081 188.914,282.197 188.522 C 287.050 172.126,287.278 169.648,284.250 166.199 C 282.890 164.651,281.248 164.496,279.621 165.765 M208.582 263.619 L 208.582 273.134 209.813 273.134 L 211.044 273.134 211.026 268.626 C 211.008 264.139,211.013 264.113,212.054 263.215 C 214.935 260.734,216.418 262.560,216.418 268.587 L 216.418 273.134 217.537 273.134 L 218.657 273.134 218.741 269.869 C 218.912 263.204,218.665 262.031,216.919 261.235 C 215.505 260.591,213.371 260.748,211.976 261.598 L 210.706 262.372 210.924 258.238 L 211.142 254.104 209.862 254.104 L 208.582 254.104 208.582 263.619 M258.287 254.689 C 257.220 255.436,256.059 257.711,255.746 259.667 C 255.540 260.957,255.364 261.194,254.616 261.194 C 254.078 261.194,253.731 261.414,253.731 261.754 C 253.731 262.109,254.089 262.313,254.711 262.313 L 255.691 262.313 255.528 267.724 L 255.365 273.134 256.601 273.134 L 257.836 273.134 257.836 267.724 L 257.836 262.313 259.080 262.313 C 259.936 262.313,260.323 262.139,260.323 261.754 C 260.323 261.372,259.941 261.194,259.120 261.194 C 257.780 261.194,257.463 260.723,257.463 258.738 C 257.463 257.141,258.649 255.823,259.767 256.178 C 260.602 256.443,261.179 255.866,261.188 254.757 C 261.196 253.914,259.453 253.872,258.287 254.689 M276.306 263.619 L 276.306 273.134 277.519 273.134 L 278.731 273.134 278.731 263.619 L 278.731 254.104 277.519 254.104 L 276.306 254.104 276.306 263.619 M323.881 258.032 L 323.881 261.959 322.699 261.349 C 317.866 258.849,313.108 264.705,315.440 270.285 C 316.666 273.220,320.694 274.198,323.125 272.152 L 324.293 271.169 324.046 272.152 C 323.820 273.055,323.893 273.134,324.960 273.134 L 326.119 273.134 326.119 268.716 C 326.119 266.285,326.229 262.004,326.364 259.201 L 326.608 254.104 325.244 254.104 L 323.881 254.104 323.881 258.032 M198.875 261.512 C 195.447 263.333,194.691 268.746,197.476 271.531 C 199.902 273.957,206.343 273.581,206.343 271.014 L 206.343 270.098 205.255 270.873 C 201.771 273.354,198.401 271.439,198.401 266.978 C 198.401 262.606,201.571 260.484,204.465 262.920 C 205.764 264.013,205.812 264.006,206.149 262.663 C 206.608 260.833,201.634 260.046,198.875 261.512 M224.440 261.177 C 220.540 262.790,220.162 269.828,223.842 272.287 C 226.368 273.975,231.716 273.142,231.716 271.061 L 231.716 270.127 230.566 270.978 C 227.922 272.932,223.881 271.300,223.881 268.278 L 223.881 267.164 228.172 267.164 L 232.463 267.164 232.463 266.033 C 232.463 262.149,228.252 259.600,224.440 261.177 M236.754 261.174 C 232.916 262.745,232.533 269.867,236.156 272.287 C 238.558 273.892,243.631 273.207,244.154 271.207 C 244.462 270.029,244.219 269.947,243.079 270.843 C 240.934 272.531,238.237 272.189,236.942 270.065 C 235.328 267.419,235.640 267.164,240.485 267.164 L 244.776 267.164 244.776 265.727 C 244.776 262.085,240.482 259.648,236.754 261.174 M247.015 267.031 L 247.015 273.134 248.134 273.134 L 249.254 273.134 249.254 269.080 C 249.254 264.274,249.881 262.917,252.004 263.130 C 253.077 263.237,253.181 263.148,253.289 262.034 C 253.441 260.448,251.631 260.276,250.170 261.737 L 249.254 262.653 249.253 261.830 C 249.252 261.174,249.026 260.999,248.133 260.968 L 247.015 260.928 247.015 267.031 M262.209 265.207 C 261.886 271.734,262.603 273.134,266.264 273.134 C 267.640 273.134,268.461 272.916,269.166 272.361 L 270.149 271.588 270.149 272.361 C 270.149 272.972,270.385 273.134,271.269 273.134 L 272.388 273.134 272.388 267.071 L 272.388 261.007 271.269 261.007 L 270.149 261.007 270.149 264.776 C 270.149 270.134,269.467 271.642,267.043 271.642 C 264.781 271.642,264.360 270.666,264.424 265.571 L 264.482 260.932 263.449 260.970 L 262.417 261.007 262.209 265.207 M291.116 261.577 C 287.645 263.693,287.831 270.524,291.412 272.439 C 294.085 273.868,299.254 272.929,299.254 271.013 C 299.254 269.940,299.220 269.941,297.539 271.082 C 295.240 272.642,292.575 271.970,291.575 269.577 C 290.571 267.173,290.585 267.164,295.336 267.164 L 299.627 267.164 299.627 265.636 C 299.627 261.595,294.835 259.309,291.116 261.577 M302.052 267.052 L 302.052 273.134 303.265 273.134 L 304.478 273.134 304.478 268.640 C 304.478 263.693,305.075 262.313,307.218 262.313 C 309.462 262.313,309.888 263.290,309.888 268.439 L 309.888 273.135 311.101 273.134 L 312.313 273.134 312.313 268.452 C 312.313 262.040,311.640 260.821,308.097 260.821 C 306.990 260.821,306.119 261.076,305.461 261.594 C 304.526 262.329,304.478 262.333,304.478 261.669 C 304.478 261.129,304.201 260.970,303.265 260.970 L 302.052 260.970 302.052 267.052 M331.082 261.552 C 327.608 263.670,327.582 270.270,331.038 272.377 C 333.448 273.846,338.398 273.142,339.000 271.245 C 339.375 270.062,339.029 270.021,337.492 271.064 C 335.252 272.583,332.699 272.037,331.536 269.788 C 330.258 267.317,330.477 267.164,335.309 267.164 L 339.647 267.164 339.461 265.228 C 339.091 261.377,334.600 259.406,331.082 261.552 M343.190 261.407 C 342.498 261.783,342.164 262.264,342.164 262.885 C 342.164 263.937,342.458 264.055,343.056 263.245 C 344.249 261.629,347.254 262.012,347.905 263.864 C 348.410 265.298,347.975 265.975,346.382 266.235 C 342.410 266.881,341.045 267.908,341.045 270.246 C 341.045 272.781,344.936 274.213,347.308 272.551 C 348.063 272.022,348.195 272.022,348.724 272.551 C 349.333 273.161,350.274 273.292,351.275 272.908 C 352.086 272.597,352.015 272.141,351.119 271.907 C 350.427 271.726,350.373 271.398,350.373 267.357 C 350.373 261.285,347.620 259.005,343.190 261.407 M352.233 261.194 C 352.158 262.886,357.044 273.124,357.929 273.129 C 358.493 273.132,358.955 272.966,358.955 272.760 C 358.955 272.555,360.047 269.843,361.381 266.735 C 364.218 260.122,364.035 260.847,362.835 260.975 C 361.970 261.068,361.701 261.504,360.381 264.961 C 359.565 267.096,358.767 269.175,358.608 269.579 C 358.269 270.438,357.580 269.073,355.766 263.952 C 354.726 261.014,354.682 260.958,353.473 260.982 C 352.796 260.996,352.237 261.091,352.233 261.194 M367.351 261.515 C 364.393 263.342,363.461 267.484,365.257 270.822 C 367.072 274.197,374.149 273.948,375.979 270.446 C 378.981 264.703,372.705 258.208,367.351 261.515 M379.171 266.153 C 379.290 271.305,379.297 271.340,380.338 272.235 C 381.764 273.460,384.873 273.507,386.375 272.326 L 387.403 271.517 387.147 272.326 C 386.919 273.044,387.028 273.134,388.128 273.133 L 389.366 273.132 389.366 267.051 L 389.366 260.970 388.153 260.970 L 386.940 260.970 386.940 265.323 C 386.940 270.437,386.407 271.642,384.142 271.642 C 381.810 271.642,381.263 270.370,381.407 265.285 L 381.530 260.969 380.290 260.970 L 379.051 260.970 379.171 266.153 M392.910 267.071 L 392.910 273.134 394.030 273.134 L 395.149 273.134 395.149 269.234 C 395.149 264.150,396.088 262.338,398.283 263.180 C 398.776 263.369,399.236 262.468,399.249 261.287 C 399.258 260.445,397.044 260.758,396.065 261.737 L 395.149 262.653 395.149 261.830 C 395.149 261.165,394.935 261.007,394.030 261.007 L 392.910 261.007 392.910 267.071 M229.077 262.923 C 230.740 265.037,230.229 265.672,226.866 265.672 C 225.224 265.672,223.881 265.582,223.881 265.473 C 223.881 262.641,227.470 260.880,229.077 262.923 M241.391 262.923 C 243.060 265.045,242.546 265.672,239.139 265.672 C 236.534 265.672,236.146 265.590,236.341 265.081 C 236.465 264.757,236.567 264.362,236.567 264.203 C 236.567 262.275,240.136 261.328,241.391 262.923 M295.881 262.306 C 296.480 262.626,297.388 264.462,297.388 265.354 C 297.388 265.529,296.045 265.672,294.403 265.672 C 290.975 265.672,290.607 265.201,292.384 263.088 C 293.386 261.898,294.608 261.624,295.881 262.306 M323.112 263.302 C 325.357 266.157,323.650 272.015,320.573 272.015 C 316.846 272.015,316.292 263.690,319.929 262.332 C 321.035 261.919,322.336 262.316,323.112 263.302 M336.179 262.757 C 336.598 263.206,336.940 263.780,336.940 264.032 C 336.940 264.285,337.042 264.757,337.167 265.081 C 337.363 265.591,336.956 265.672,334.177 265.672 L 330.960 265.672 331.537 264.272 C 332.539 261.841,334.676 261.144,336.179 262.757 M372.705 262.813 C 376.043 266.366,373.523 273.395,369.424 271.966 C 366.717 271.023,365.961 265.666,368.165 263.047 C 369.376 261.608,371.472 261.500,372.705 262.813 M348.061 268.899 C 347.865 271.900,344.700 273.148,343.571 270.670 C 343.023 269.467,343.457 268.696,345.177 267.818 C 347.508 266.628,348.194 266.885,348.061 268.899 " stroke="none" fill="#fff" fill-rule="evenodd"></path></g></svg>