<?xml version="1.0" encoding="UTF-8"?>
<!DOCTYPE svg PUBLIC "-//W3C//DTD SVG 1.1//EN" "http://www.w3.org/Graphics/SVG/1.1/DTD/svg11.dtd">
<!-- Creator: CorelDRAW X7 -->
<svg xmlns="http://www.w3.org/2000/svg" xml:space="preserve" width="4.5in" height="1.5in" version="1.1" style="shape-rendering:geometricPrecision; text-rendering:geometricPrecision; image-rendering:optimizeQuality; fill-rule:evenodd; clip-rule:evenodd"
viewBox="0 0 4500 1500"
 xmlns:xlink="http://www.w3.org/1999/xlink">
 <defs>
  <style type="text/css">
   <![CDATA[
    .str1 {stroke:#FEFEFE;stroke-width:13.8858;stroke-linecap:round}
    .str0 {stroke:#B05821;stroke-width:20.8307;stroke-linecap:round;stroke-linejoin:round}
    .fil0 {fill:none}
    .fil3 {fill:#FEFEFE}
    .fil2 {fill:#877C08}
    .fil1 {fill:#B05821;fill-rule:nonzero}
   ]]>
  </style>
 </defs>
 <g id="Layer_x0020_1">
  <metadata id="CorelCorpID_0Corel-Layer"/>
  <rect class="fil0" width="4500" height="1500"/>
  <g id="_2156126067856">
   <g>
    <path class="fil1" d="M1493 653l0 -247 57 0 0 247 -57 0zm116 0l0 -247 47 0 145 178 -23 0 0 -178 57 0 0 247 -47 0 -146 -178 23 0 0 178 -56 0zm284 0l0 -247 112 0c27,0 50,5 71,16 20,10 36,24 47,42 12,19 18,40 18,66 0,24 -6,46 -18,64 -11,19 -27,33 -47,43 -21,11 -44,16 -71,16l-112 0zm57 -47l52 0c16,0 31,-3 43,-9 12,-7 21,-16 28,-27 7,-12 10,-25 10,-40 0,-16 -3,-30 -10,-41 -7,-12 -16,-20 -28,-27 -12,-6 -27,-9 -43,-9l-52 0 0 153zm234 47l0 -247 57 0 0 247 -57 0zm83 0l109 -247 57 0 110 247 -60 0 -90 -218 23 0 -91 218 -58 0zm55 -53l15 -43 126 0 16 43 -157 0zm247 53l0 -247 47 0 145 178 -23 0 0 -178 57 0 0 247 -47 0 -146 -178 23 0 0 178 -56 0zm-1023 289l118 0 0 45 -118 0 0 -45zm4 102l134 0 0 45 -191 0 0 -246 186 0 0 46 -129 0 0 155zm260 50c-19,0 -38,-3 -56,-8 -18,-6 -33,-12 -44,-21l19 -43c11,8 23,14 38,19 14,5 29,7 44,7 11,0 20,-1 27,-3 7,-3 12,-6 15,-10 3,-4 5,-8 5,-13 0,-7 -2,-12 -8,-16 -5,-4 -12,-7 -20,-10 -9,-2 -18,-4 -28,-7 -10,-2 -20,-5 -31,-8 -10,-3 -19,-7 -28,-13 -8,-5 -15,-12 -20,-20 -6,-8 -8,-19 -8,-32 0,-14 4,-27 11,-39 8,-12 19,-21 35,-28 15,-7 34,-10 58,-10 15,0 30,2 45,5 15,4 29,9 40,17l-17 43c-12,-7 -23,-11 -35,-15 -11,-3 -23,-4 -34,-4 -11,0 -20,1 -27,3 -7,3 -12,6 -15,11 -3,4 -4,8 -4,14 0,6 2,11 7,15 5,4 12,7 21,9 8,3 17,5 28,7 10,3 20,5 30,9 10,3 20,7 28,12 9,5 16,12 21,20 5,9 8,19 8,32 0,14 -4,27 -12,38 -8,12 -19,21 -35,28 -15,7 -34,11 -58,11zm263 0c-20,0 -38,-3 -54,-10 -16,-6 -30,-15 -42,-26 -13,-12 -22,-25 -29,-41 -6,-15 -10,-32 -10,-51 0,-18 4,-35 10,-51 7,-15 16,-29 29,-40 12,-12 26,-21 43,-27 16,-6 34,-9 54,-9 22,0 41,4 59,11 17,7 32,18 44,31l-37 34c-9,-9 -18,-16 -29,-21 -10,-4 -22,-7 -34,-7 -12,0 -23,2 -33,6 -10,4 -18,9 -26,16 -7,7 -12,16 -16,25 -4,10 -6,21 -6,32 0,12 2,22 6,32 4,10 9,18 16,25 8,7 16,13 26,16 9,4 20,6 32,6 11,0 22,-2 33,-5 10,-4 21,-10 31,-19l32 41c-13,10 -29,18 -46,24 -18,5 -36,8 -53,8zm47 -39l0 -93 52 0 0 100 -52 -7zm205 34l0 -246 47 0 145 177 -23 0 0 -177 57 0 0 246 -47 0 -146 -177 23 0 0 177 -56 0z"/>
    <path class="fil1" d="M2661 942l119 0 0 45 -119 0 0 -45zm5 102l134 0 0 45 -191 0 0 -246 186 0 0 46 -129 0 0 155zm230 45l0 -199 -79 0 0 -47 215 0 0 47 -79 0 0 199 -57 0zm221 0l-80 -246 59 0 70 218 -30 0 73 -218 53 0 71 218 -29 0 72 -218 54 0 -80 246 -61 0 -63 -191 16 0 -64 191 -61 0zm462 5c-20,0 -38,-4 -54,-10 -17,-6 -31,-15 -43,-27 -12,-11 -21,-25 -28,-40 -7,-16 -10,-32 -10,-51 0,-18 3,-35 10,-50 7,-16 16,-29 28,-41 12,-11 27,-20 43,-27 16,-6 34,-9 54,-9 19,0 37,3 53,9 17,7 31,16 43,27 12,12 21,25 28,40 7,16 10,33 10,51 0,19 -3,36 -10,51 -7,16 -16,29 -28,41 -12,11 -26,20 -43,26 -16,6 -34,10 -53,10zm0 -49c11,0 21,-2 30,-6 9,-3 17,-9 24,-16 8,-7 13,-15 17,-25 4,-9 6,-20 6,-32 0,-11 -2,-22 -6,-32 -4,-9 -9,-18 -16,-25 -7,-7 -15,-12 -25,-16 -9,-4 -19,-6 -30,-6 -11,0 -22,2 -31,6 -9,4 -17,9 -24,16 -7,7 -13,16 -17,25 -4,10 -6,21 -6,32 0,12 2,22 6,32 4,10 10,18 16,25 7,7 16,13 25,16 9,4 20,6 31,6zm177 44l0 -246 107 0c22,0 41,4 57,11 16,7 28,17 37,31 9,13 13,29 13,47 0,19 -4,35 -13,48 -9,13 -21,23 -37,30 -16,7 -35,11 -57,11l-75 0 25 -25 0 93 -57 0zm157 0l-62 -89 61 0 62 89 -61 0zm-100 -87l-25 -27 72 0c17,0 30,-3 39,-11 9,-8 13,-18 13,-32 0,-13 -4,-24 -13,-31 -9,-8 -22,-11 -39,-11l-72 0 25 -28 0 140zm253 31l-3 -66 118 -124 63 0 -106 114 -32 34 -40 42zm-51 56l0 -246 57 0 0 246 -57 0zm168 0l-87 -107 37 -40 117 147 -67 0z"/>
   </g>
   <line class="fil0 str0" x1="1359" y1="334" x2="1359" y2= "1166" />
   <g>
    <path class="fil2" d="M737 263c269,0 488,218 488,487 0,269 -219,487 -488,487 -269,0 -487,-218 -487,-487 0,-269 218,-487 487,-487z"/>
    <path class="fil3" d="M680 507c-54,-40 -82,-75 -100,-116 127,124 198,93 215,-95 6,88 6,156 -1,210 -43,-3 -68,-7 -114,1z"/>
    <path class="fil3" d="M690 363c21,-6 45,8 51,31 7,23 -4,47 -26,54 -21,6 -45,-8 -52,-31 -6,-23 5,-47 27,-54z"/>
    <path class="fil3" d="M522 621c-66,10 -111,5 -153,-11 178,-2 206,-75 85,-220 67,58 115,106 148,150 -33,27 -53,42 -80,81z"/>
    <path class="fil3" d="M428 512c10,-20 36,-26 58,-15 21,12 30,37 19,57 -11,20 -37,26 -58,15 -21,-12 -30,-37 -19,-57z"/>
    <path class="fil3" d="M491 813c-40,54 -75,82 -116,100 124,-127 93,-198 -95,-215 88,-6 156,-6 210,1 -3,43 -7,68 1,114z"/>
    <path class="fil3" d="M347 803c-6,-21 8,-45 31,-51 23,-7 47,4 54,26 6,21 -8,45 -31,51 -23,7 -47,-4 -54,-26z"/>
    <path class="fil3" d="M872 538c-10,-66 -5,-111 11,-153 2,178 75,206 219,85 -57,67 -106,115 -149,148 -27,-33 -42,-53 -81,-80z"/>
    <path class="fil3" d="M981 444c19,10 26,36 15,58 -12,21 -37,30 -57,19 -20,-11 -27,-37 -15,-58 12,-21 37,-30 57,-19z"/>
    <path class="fil3" d="M1007 879c-63,133 -138,193 -271,256 249,26 478,-208 364,-516 -45,185 -412,100 -364,484 35,-9 197,-95 271,-224z"/>
    <path class="fil3" d="M532 1029c42,58 83,79 153,97 -116,36 -248,-55 -222,-212 39,84 206,8 219,196 -18,0 -103,-26 -150,-81z"/>
    <path class="fil0 str1" d="M698 965c-75,-15 -137,-69 -162,-142 -38,-113 22,-235 135,-273 112,-38 235,22 273,134 2,8 5,15 6,22"/>
    <path class="fil3" d="M704 652c54,-19 113,10 131,65 6,16 7,32 5,47 -38,24 -72,52 -99,90 -44,1 -87,-26 -102,-71 -18,-54 11,-113 65,-131z"/>
    <path class="fil0 str1" d="M709 908c-56,-11 -101,-51 -119,-104 -28,-83 16,-172 99,-200 82,-28 172,16 200,98 2,6 3,11 4,16"/>
   </g>
  </g>
 </g>
</svg>
