<svg id="svg" xmlns="http://www.w3.org/2000/svg" xmlns:xlink="http://www.w3.org/1999/xlink" width="400" height="97.45158002038737" viewBox="0, 0, 400,97.45158002038737"><g id="svgg"><path id="path0" d="M42.866 0.309 C 4.985 5.106,-13.011 49.701,10.946 79.409 C 31.602 105.024,71.665 103.009,89.689 75.449 C 112.306 40.864,83.804 -4.875,42.866 0.309 M54.927 13.354 C 54.919 21.986,54.762 24.420,54.222 24.293 C 53.323 24.082,45.803 24.031,44.556 24.227 L 43.139 24.451 42.008 23.591 C 38.987 21.295,36.041 18.065,34.250 15.085 C 32.901 12.841,32.952 12.780,34.811 14.415 C 45.988 24.245,52.924 21.165,54.358 5.735 C 54.706 1.993,54.934 5.051,54.927 13.354 M110.540 6.565 C 110.352 6.753,110.296 16.399,110.296 48.742 C 110.296 94.002,110.236 91.505,111.302 90.935 L 111.723 90.709 111.723 48.726 C 111.723 7.426,111.716 6.739,111.328 6.531 C 110.837 6.268,110.837 6.268,110.540 6.565 M47.468 10.656 C 51.975 13.639,48.215 20.709,43.521 18.076 C 40.790 16.544,40.606 12.230,43.200 10.563 C 44.441 9.766,46.179 9.803,47.468 10.656 M63.799 17.294 C 65.072 29.672,72.020 31.407,83.542 22.224 C 84.264 21.648,84.883 21.206,84.917 21.241 C 85.211 21.537,74.924 31.935,72.070 34.227 L 70.450 35.527 69.530 34.430 C 67.928 32.518,64.617 29.209,63.498 28.403 C 62.248 27.502,62.267 27.552,61.963 24.355 C 61.604 20.590,61.889 17.268,62.845 14.067 L 63.302 12.538 63.442 13.863 C 63.519 14.592,63.680 16.136,63.799 17.294 M25.292 17.016 C 28.772 20.233,32.750 24.396,34.451 26.601 L 35.350 27.766 34.447 28.511 C 31.903 30.607,30.041 32.411,28.744 34.036 C 27.048 36.160,27.403 36.039,22.324 36.212 C 18.326 36.348,16.315 36.124,13.555 35.236 L 12.130 34.778 14.502 34.630 C 29.088 33.720,31.745 27.386,22.593 15.344 C 20.639 12.773,20.827 12.889,25.292 17.016 M124.363 26.707 L 124.363 39.144 127.319 39.144 L 130.275 39.144 130.275 26.707 L 130.275 14.271 127.319 14.271 L 124.363 14.271 124.363 26.707 M135.780 26.707 L 135.780 39.144 138.733 39.144 L 141.687 39.144 141.741 31.857 L 141.794 24.571 147.780 31.857 L 153.765 39.144 156.190 39.144 L 158.614 39.144 158.614 26.707 L 158.614 14.271 155.660 14.271 L 152.706 14.271 152.653 21.534 L 152.599 28.796 146.687 21.547 L 140.775 14.298 138.277 14.285 L 135.780 14.271 135.780 26.707 M164.322 26.711 L 164.322 39.183 171.407 39.092 C 179.351 38.991,179.660 38.946,182.671 37.480 C 191.416 33.222,191.381 20.156,182.613 15.830 C 179.935 14.509,179.290 14.422,171.407 14.326 L 164.322 14.239 164.322 26.711 M193.272 26.707 L 193.272 39.144 196.228 39.144 L 199.185 39.144 199.185 26.707 L 199.185 14.271 196.228 14.271 L 193.272 14.271 193.272 26.707 M207.079 26.552 C 204.076 33.309,201.622 38.909,201.625 38.996 C 201.628 39.083,202.979 39.129,204.627 39.098 L 207.624 39.042 208.673 36.493 L 209.722 33.945 215.394 33.945 L 221.066 33.945 222.120 36.493 L 223.174 39.042 226.266 39.098 C 227.966 39.129,229.354 39.083,229.349 38.996 C 229.343 38.909,226.875 33.333,223.863 26.606 L 218.386 14.373 215.462 14.320 L 212.538 14.267 207.079 26.552 M231.804 26.707 L 231.804 39.144 234.656 39.144 L 237.508 39.144 237.561 31.800 L 237.615 24.456 243.629 31.796 L 249.643 39.136 252.039 39.140 L 254.434 39.144 254.434 26.707 L 254.434 14.271 251.583 14.271 L 248.731 14.271 248.677 21.615 L 248.624 28.958 242.621 21.615 L 236.619 14.271 234.212 14.271 L 231.804 14.271 231.804 26.707 M73.651 18.399 C 76.754 20.766,74.828 26.272,70.890 26.295 C 66.480 26.321,65.545 20.237,69.623 18.046 C 70.607 17.517,72.739 17.704,73.651 18.399 M178.634 19.748 C 183.314 21.590,184.753 28.006,181.335 31.790 C 179.619 33.688,177.769 34.243,173.140 34.248 L 170.031 34.251 170.031 26.688 L 170.031 19.125 173.751 19.208 C 177.004 19.280,177.618 19.348,178.634 19.748 M217.309 24.891 L 219.121 29.256 217.318 29.314 C 216.327 29.347,214.654 29.347,213.600 29.314 L 211.685 29.256 213.525 24.826 C 214.538 22.389,215.396 20.425,215.432 20.461 C 215.468 20.497,216.313 22.491,217.309 24.891 M23.645 23.446 C 27.025 25.186,26.822 30.015,23.327 30.993 C 19.194 32.151,15.720 27.310,18.487 24.248 C 19.735 22.866,21.871 22.534,23.645 23.446 M52.396 27.412 C 60.672 28.669,67.380 34.350,70.023 42.342 C 70.597 44.076,70.632 44.750,70.150 44.750 C 69.974 44.750,69.658 44.094,69.314 43.017 C 63.814 25.771,41.308 22.646,31.448 37.759 C 23.747 49.563,30.014 65.719,43.731 69.425 C 45.370 69.868,45.896 70.363,44.881 70.506 C 41.800 70.942,34.228 66.044,31.191 61.650 C 20.273 45.857,33.476 24.538,52.396 27.412 M53.380 33.430 C 58.955 35.010,64.786 41.108,64.828 45.401 C 64.839 46.584,64.206 46.090,63.731 44.546 C 59.224 29.875,37.988 30.449,34.248 45.344 C 32.252 53.294,37.455 62.106,45.163 63.831 C 46.303 64.086,46.789 64.517,46.287 64.827 C 45.034 65.602,38.916 62.184,36.712 59.479 C 26.696 47.182,38.240 29.139,53.380 33.430 M86.126 38.816 C 91.895 57.848,84.476 76.130,67.788 84.007 C 62.581 86.464,55.499 87.839,50.472 87.368 L 48.870 87.218 51.601 85.803 C 63.510 79.635,69.320 74.036,75.002 63.252 C 75.442 62.416,75.079 62.776,74.385 63.863 C 69.861 70.948,57.371 81.000,49.893 83.572 L 48.751 83.965 48.586 82.808 C 47.833 77.553,48.641 69.982,50.417 65.647 C 53.235 58.767,57.147 55.406,69.317 49.410 C 80.118 44.089,83.247 41.505,84.813 36.616 C 85.131 35.622,85.185 35.714,86.126 38.816 M50.788 38.531 C 55.190 39.343,58.663 43.175,59.210 47.823 C 59.433 49.722,59.268 50.031,57.313 51.373 C 54.794 53.102,52.092 55.537,50.561 57.458 C 49.056 59.344,48.938 59.384,46.502 58.809 C 33.629 55.775,37.780 36.131,50.788 38.531 M22.207 43.432 C 24.508 43.673,24.254 43.407,24.048 45.362 C 23.810 47.605,23.819 52.002,24.064 53.697 L 24.267 55.100 22.741 56.978 C 20.063 60.273,17.308 62.639,14.169 64.338 C 12.585 65.196,12.592 65.168,14.487 63.099 C 24.377 52.303,21.256 45.981,4.893 43.665 C 3.380 43.450,2.968 43.504,8.359 43.216 C 11.866 43.029,19.499 43.148,22.207 43.432 M16.216 49.109 C 18.909 50.332,19.273 53.611,16.949 55.710 C 13.631 58.708,8.422 55.444,10.103 51.421 C 11.055 49.141,13.911 48.062,16.216 49.109 M153.975 57.705 C 148.004 58.773,144.879 63.569,147.114 68.233 C 148.195 70.487,150.090 71.485,156.123 72.976 C 159.789 73.882,160.652 74.438,160.652 75.895 C 160.652 78.746,154.635 79.218,149.722 76.752 C 148.737 76.258,147.910 75.875,147.884 75.901 C 147.858 75.927,147.405 76.904,146.876 78.072 L 145.916 80.196 146.505 80.671 C 148.982 82.664,156.171 83.731,160.189 82.701 C 164.011 81.721,166.310 79.220,166.519 75.815 C 166.776 71.621,164.771 69.805,158.002 68.099 C 153.063 66.854,152.064 66.220,152.381 64.534 C 152.854 62.008,158.002 61.542,162.467 63.620 C 163.184 63.954,163.788 64.203,163.808 64.173 C 164.111 63.727,165.502 59.830,165.411 59.683 C 164.587 58.350,157.359 57.100,153.975 57.705 M179.661 57.705 C 170.395 59.369,165.862 69.188,170.667 77.188 C 174.388 83.381,184.420 85.062,191.391 80.661 L 192.253 80.117 192.253 75.023 L 192.253 69.929 189.607 69.929 L 186.961 69.929 186.906 73.541 L 186.850 77.154 185.831 77.538 C 178.984 80.116,172.796 74.000,175.348 67.178 C 177.106 62.479,183.874 61.074,188.093 64.532 C 189.188 65.428,188.927 65.514,191.063 63.558 L 192.899 61.876 191.746 60.800 C 189.006 58.247,183.912 56.942,179.661 57.705 M329.663 57.782 C 322.182 59.349,317.663 66.476,319.573 73.693 C 322.917 86.324,342.621 86.241,345.895 73.584 C 348.343 64.116,339.681 55.683,329.663 57.782 M124.363 70.336 L 124.363 82.773 133.945 82.773 L 143.527 82.773 143.527 80.326 L 143.527 77.880 136.799 77.880 L 130.071 77.880 130.071 75.127 L 130.071 72.375 135.780 72.375 L 141.488 72.375 141.488 70.133 L 141.488 67.890 135.780 67.890 L 130.071 67.890 130.071 65.341 L 130.071 62.793 136.595 62.793 L 143.119 62.793 143.119 60.347 L 143.119 57.900 133.741 57.900 L 124.363 57.900 124.363 70.336 M207.339 70.330 L 207.339 82.773 210.293 82.773 L 213.247 82.773 213.300 75.500 L 213.354 68.228 219.328 75.500 L 225.302 82.773 227.738 82.773 L 230.173 82.773 230.173 70.336 L 230.173 57.900 227.220 57.900 L 224.266 57.900 224.213 65.171 L 224.159 72.442 218.237 65.222 L 212.315 58.002 209.827 57.945 L 207.339 57.888 207.339 70.330 M235.678 70.336 L 235.678 82.773 245.362 82.773 L 255.046 82.773 255.046 80.326 L 255.046 77.880 248.318 77.880 L 241.590 77.880 241.590 75.127 L 241.590 72.375 247.299 72.375 L 253.007 72.375 253.007 70.133 L 253.007 67.890 247.299 67.890 L 241.590 67.890 241.590 65.344 L 241.590 62.799 248.063 62.745 L 254.536 62.691 254.594 60.296 L 254.651 57.900 245.164 57.900 L 235.678 57.900 235.678 70.336 M256.677 60.347 L 256.677 62.793 260.550 62.793 L 264.424 62.793 264.424 72.783 L 264.424 82.773 267.380 82.773 L 270.336 82.773 270.336 72.783 L 270.336 62.793 274.312 62.793 L 278.287 62.793 278.287 60.347 L 278.287 57.900 267.482 57.900 L 256.677 57.900 256.677 60.347 M278.527 58.185 C 278.564 58.342,280.382 63.938,282.569 70.620 L 286.544 82.769 289.706 82.771 L 292.868 82.773 295.603 74.567 L 298.337 66.361 300.337 72.477 C 301.437 75.841,302.629 79.536,302.986 80.688 L 303.636 82.783 306.808 82.727 L 309.980 82.671 313.999 70.438 C 316.210 63.710,318.024 58.137,318.031 58.053 C 318.037 57.969,316.777 57.900,315.229 57.900 L 312.415 57.900 309.571 66.480 L 306.726 75.059 303.975 66.477 L 301.223 57.895 298.491 57.948 L 295.758 58.002 292.893 66.453 L 290.029 74.903 288.626 70.530 C 287.855 68.125,286.627 64.299,285.898 62.029 L 284.571 57.900 281.516 57.900 C 279.003 57.900,278.473 57.951,278.527 58.185 M350.459 70.336 L 350.459 82.773 353.415 82.773 L 356.371 82.773 356.371 79.301 L 356.371 75.828 358.864 75.886 L 361.358 75.943 363.706 79.357 L 366.055 82.770 369.164 82.771 C 372.535 82.773,372.583 82.753,371.790 81.689 C 371.524 81.332,370.338 79.646,369.153 77.943 L 366.998 74.845 367.852 74.344 C 373.076 71.278,373.318 63.210,368.287 59.828 C 365.836 58.180,364.131 57.903,356.422 57.901 L 350.459 57.900 350.459 70.336 M376.147 70.336 L 376.147 82.773 379.103 82.773 L 382.059 82.773 382.066 79.664 L 382.073 76.555 383.653 74.847 L 385.233 73.140 389.174 77.956 L 393.115 82.773 396.477 82.773 C 399.296 82.773,399.822 82.726,399.729 82.484 C 399.668 82.325,397.351 79.320,394.581 75.807 C 391.811 72.293,389.468 69.320,389.373 69.198 C 389.264 69.058,390.927 67.117,393.914 63.898 C 396.506 61.104,398.814 58.611,399.043 58.359 L 399.459 57.900 396.111 57.909 L 392.762 57.917 387.462 63.534 L 382.161 69.151 382.107 63.525 L 382.053 57.900 379.100 57.900 L 376.147 57.900 376.147 70.336 M334.978 62.909 C 341.540 64.802,342.166 74.579,335.905 77.389 C 330.632 79.755,325.280 76.203,325.280 70.336 C 325.280 64.875,329.799 61.414,334.978 62.909 M363.102 63.119 C 366.556 64.145,366.994 68.987,363.775 70.564 C 362.896 70.995,362.455 71.053,359.582 71.120 L 356.371 71.195 356.371 66.994 L 356.371 62.793 359.188 62.793 C 361.175 62.793,362.329 62.889,363.102 63.119 M23.009 67.051 C 24.244 68.266,25.850 68.946,30.338 70.153 C 39.060 72.499,42.008 75.389,43.109 82.671 C 43.446 84.904,43.485 84.837,42.048 84.501 C 38.158 83.594,32.750 80.816,30.227 78.429 C 29.865 78.086,29.519 77.855,29.459 77.915 C 29.207 78.166,33.631 82.100,35.180 83.003 C 36.916 84.016,39.708 85.183,41.692 85.727 C 43.589 86.247,43.611 86.268,42.610 86.584 C 34.378 89.185,24.543 83.434,21.901 74.474 C 21.022 71.495,20.921 64.302,21.777 65.647 C 21.956 65.928,22.510 66.559,23.009 67.051 " stroke="none" fill="#fff" fill-rule="evenodd"></path></g></svg>