<svg id="svg" xmlns="http://www.w3.org/2000/svg" xmlns:xlink="http://www.w3.org/1999/xlink" width="400" height="220.67594433399603" viewBox="0, 0, 400,220.67594433399603"><g id="svgg"><path id="path0" d="M109.940 0.207 C 86.869 1.866,64.294 10.873,45.522 25.910 C 42.569 28.275,41.765 28.965,37.831 32.505 C 36.859 33.380,35.621 34.406,35.079 34.787 C 34.186 35.414,34.139 35.484,34.568 35.549 C 34.914 35.602,35.288 35.382,35.960 34.731 C 41.109 29.744,61.794 20.336,76.473 16.306 C 125.589 2.819,179.382 19.030,213.892 57.719 C 215.782 59.838,214.357 57.169,210.780 51.889 C 187.246 17.155,148.735 -2.582,109.940 0.207 M84.891 25.259 C 82.184 26.757,80.517 29.498,80.517 32.452 L 80.517 33.704 75.831 35.261 C 70.470 37.043,70.923 37.020,71.284 35.485 C 71.793 33.321,71.488 27.870,70.821 27.202 C 70.567 26.949,68.792 28.261,67.457 29.688 C 65.475 31.806,64.031 35.250,64.019 37.884 L 64.016 38.690 60.555 40.220 C 58.651 41.061,57.050 41.750,56.996 41.750 C 56.942 41.750,57.036 41.325,57.204 40.805 C 57.918 38.601,57.454 34.572,56.264 32.645 L 55.859 31.989 55.245 32.346 C 51.354 34.612,49.101 40.521,50.378 45.112 L 50.677 46.189 49.842 46.921 C 49.382 47.323,47.977 48.553,46.720 49.654 L 44.433 51.656 44.302 48.818 C 44.149 45.491,43.779 43.968,42.741 42.378 C 41.201 40.023,40.829 39.959,39.363 41.796 C 36.208 45.749,35.815 50.948,38.357 55.080 C 38.692 55.624,38.966 56.105,38.966 56.149 C 38.966 56.278,31.193 63.269,31.135 63.192 C 31.106 63.153,30.974 62.509,30.841 61.760 C 30.128 57.742,25.953 52.467,24.719 54.026 C 21.485 58.110,22.021 64.163,25.967 68.127 L 27.387 69.554 24.263 74.242 L 21.138 78.931 20.883 77.785 C 20.105 74.280,18.152 71.373,15.302 69.479 C 13.590 68.341,13.466 68.352,12.955 69.686 C 10.799 75.319,13.097 81.797,18.286 84.713 C 18.928 85.074,19.084 85.263,19.003 85.579 C 18.732 86.625,14.528 96.087,14.451 95.825 C 14.402 95.661,14.211 94.839,14.026 93.999 C 13.151 90.024,9.946 85.827,6.316 83.903 C 5.224 83.324,5.201 83.339,4.850 84.832 C 3.474 90.680,6.545 96.802,12.249 99.584 C 13.476 100.182,13.482 100.190,13.399 100.938 C 13.293 101.892,12.725 109.331,12.719 109.850 C 12.716 110.064,12.501 109.719,12.240 109.085 C 10.652 105.223,7.454 102.315,3.534 101.168 C 1.643 100.615,1.728 100.518,1.630 103.336 C 1.433 109.005,4.257 113.226,9.569 115.204 C 10.375 115.503,11.218 115.819,11.444 115.905 C 11.822 116.049,11.874 116.329,12.104 119.412 C 12.241 121.255,12.396 123.121,12.448 123.559 C 12.543 124.348,12.540 124.346,12.060 123.234 C 10.514 119.648,7.193 116.777,3.776 116.071 C 2.424 115.792,2.472 115.903,2.267 112.584 C 2.066 109.329,1.802 109.434,1.795 112.773 L 1.789 115.706 1.020 115.706 C -0.774 115.706,-0.111 122.101,1.989 125.051 C 2.297 125.484,2.525 126.472,2.893 128.968 C 3.163 130.804,3.458 132.619,3.548 133.002 L 3.711 133.698 2.114 133.748 C 0.095 133.811,0.087 133.821,0.474 135.729 C 1.117 138.902,2.591 141.575,4.878 143.715 C 5.593 144.384,6.257 144.930,6.353 144.930 C 6.450 144.930,6.683 145.400,6.871 145.974 C 7.060 146.548,7.649 148.174,8.180 149.587 C 9.308 152.589,9.245 152.286,8.739 152.286 C 8.277 152.286,5.309 152.878,5.191 152.994 C 5.051 153.132,6.716 156.419,7.572 157.695 C 8.759 159.465,11.738 162.357,13.663 163.609 C 15.066 164.521,15.412 164.863,16.098 166.017 C 26.570 183.645,44.893 200.353,62.922 208.713 C 114.329 232.550,170.809 219.808,206.330 176.358 C 209.024 173.064,208.743 173.116,205.220 176.565 C 175.663 205.495,132.120 214.287,85.264 200.786 C 69.680 196.296,54.274 185.704,46.148 173.893 L 45.508 172.962 222.555 172.962 L 399.602 172.962 399.602 169.980 L 399.602 166.998 220.626 166.948 L 41.650 166.899 40.420 164.513 C 33.147 150.405,33.321 135.791,40.952 119.750 C 48.484 103.919,61.909 95.537,79.224 95.854 C 83.430 95.931,83.673 95.830,80.512 95.321 C 56.783 91.495,35.084 105.098,27.003 128.867 C 26.413 130.601,26.274 130.836,25.619 131.204 C 23.932 132.152,22.957 133.295,21.802 135.680 C 20.133 139.125,18.689 141.298,18.365 140.855 C 17.526 139.707,16.422 135.512,16.190 132.589 L 16.054 130.884 17.620 130.335 C 23.576 128.247,27.795 123.471,29.049 117.396 C 29.631 114.575,29.686 114.655,27.617 115.321 C 23.135 116.764,19.079 120.028,16.886 123.956 L 16.109 125.348 16.106 120.649 L 16.103 115.950 17.247 115.812 C 23.449 115.059,27.952 110.273,28.555 103.792 L 28.690 102.333 27.317 102.474 C 22.744 102.945,19.383 105.004,16.916 108.847 C 16.565 109.394,16.322 109.662,16.377 109.443 C 16.431 109.225,16.769 107.234,17.128 105.020 L 17.781 100.994 18.342 100.994 C 24.125 100.994,30.686 95.593,31.722 89.980 L 31.865 89.204 30.586 89.335 C 27.655 89.635,24.181 91.018,21.767 92.845 C 21.046 93.390,20.426 93.837,20.390 93.837 C 20.077 93.837,21.176 89.803,22.110 87.525 L 22.701 86.083 23.826 86.082 C 29.764 86.074,35.618 82.389,38.062 77.121 L 38.561 76.044 37.819 75.878 C 35.022 75.252,29.751 76.754,27.165 78.915 C 26.634 79.358,26.167 79.722,26.128 79.722 C 26.089 79.722,26.619 78.760,27.306 77.584 C 27.993 76.409,29.107 74.501,29.783 73.344 L 31.011 71.240 32.255 71.500 C 36.529 72.396,40.759 71.179,43.740 68.194 C 45.185 66.747,46.720 64.478,46.720 63.786 C 46.720 63.036,41.558 62.900,38.966 63.582 C 38.146 63.798,37.457 63.958,37.435 63.938 C 37.399 63.906,39.494 61.416,41.177 59.489 L 41.745 58.838 42.760 59.352 C 46.098 61.044,50.305 61.042,53.669 59.349 C 55.102 58.627,57.791 56.317,57.514 56.046 C 56.201 54.760,53.090 53.677,50.223 53.508 L 48.060 53.380 50.687 51.122 L 53.314 48.865 53.844 49.361 C 56.068 51.446,59.754 52.613,62.525 52.108 C 65.096 51.640,68.946 49.096,68.091 48.430 C 67.264 47.783,64.051 46.318,62.480 45.870 C 61.580 45.613,60.800 45.359,60.745 45.305 C 60.691 45.250,62.118 44.553,63.917 43.755 L 67.187 42.305 68.534 43.685 C 71.271 46.490,74.809 47.177,78.192 45.563 C 79.988 44.705,80.834 43.933,80.552 43.406 C 80.133 42.622,78.119 40.976,76.730 40.281 L 75.333 39.582 76.086 39.384 C 76.500 39.275,77.872 38.928,79.136 38.611 L 81.432 38.036 82.390 38.902 C 85.103 41.358,90.214 42.292,93.688 40.965 C 95.133 40.413,95.220 40.639,92.545 37.972 C 91.287 36.718,90.258 35.641,90.258 35.579 C 90.258 35.516,91.239 35.308,92.437 35.117 L 94.616 34.770 96.074 35.867 C 98.971 38.047,102.602 39.378,106.461 39.673 L 108.250 39.809 107.753 39.269 C 107.098 38.556,105.226 37.070,103.394 35.808 L 101.917 34.791 105.000 34.791 C 108.078 34.791,108.082 34.792,108.564 35.317 C 110.332 37.245,117.401 41.114,118.022 40.494 C 118.456 40.059,116.700 37.109,115.521 36.292 C 114.476 35.568,114.320 35.587,117.846 36.004 C 121.403 36.424,121.193 36.337,121.318 37.442 C 121.609 40.029,124.912 43.738,126.923 43.738 C 127.611 43.738,126.865 40.337,125.783 38.543 L 125.108 37.424 127.267 38.147 L 129.425 38.870 130.016 40.118 C 131.123 42.459,135.007 47.580,134.496 46.024 C 133.867 44.110,133.559 41.551,133.958 41.551 C 134.046 41.551,134.873 41.855,135.797 42.228 L 137.475 42.905 137.499 44.398 C 137.536 46.667,138.580 48.381,140.545 49.397 C 141.334 49.806,141.330 49.710,140.457 47.117 C 140.075 45.981,139.761 44.987,139.761 44.910 C 139.761 44.202,141.886 45.538,142.695 46.755 C 143.634 48.166,144.151 48.475,148.286 50.093 C 149.666 50.633,149.717 50.540,148.785 49.183 C 147.099 46.727,145.588 45.328,144.623 45.328 C 143.913 45.328,143.390 45.107,141.742 44.111 L 139.727 42.894 142.136 41.294 C 144.741 39.564,144.783 39.470,143.082 39.156 C 141.234 38.814,138.920 39.416,137.481 40.615 L 136.890 41.107 134.648 39.991 C 132.093 38.719,132.168 38.807,133.153 38.237 C 134.137 37.668,136.183 35.821,136.183 35.501 C 136.183 35.056,134.598 34.497,133.384 34.513 C 131.766 34.535,130.496 35.329,129.523 36.926 C 129.508 36.952,128.488 36.636,127.257 36.224 L 125.019 35.475 126.153 34.694 C 127.424 33.818,128.596 32.383,129.211 30.948 C 129.768 29.648,129.757 29.622,128.670 29.622 C 126.371 29.622,124.056 30.648,122.225 32.479 L 121.058 33.646 117.206 32.887 L 113.355 32.127 114.189 31.393 C 115.662 30.096,117.062 26.327,116.339 25.604 C 115.287 24.551,110.636 27.865,109.322 30.605 L 108.648 32.008 103.861 32.008 L 99.074 32.008 99.726 29.206 C 100.929 24.039,100.929 24.039,98.689 25.623 C 96.739 27.001,95.595 28.598,94.938 30.858 C 94.737 31.551,94.479 32.026,94.273 32.086 C 93.500 32.311,86.026 33.607,85.948 33.529 C 85.901 33.483,86.013 32.652,86.195 31.683 C 86.381 30.694,86.538 28.789,86.553 27.341 C 86.585 24.339,86.575 24.327,84.891 25.259 M256.806 67.214 C 254.035 67.867,252.286 70.215,252.286 73.283 L 252.286 74.553 250.696 74.553 L 249.105 74.553 249.105 76.441 L 249.105 78.330 250.696 78.330 L 252.286 78.330 252.286 84.592 L 252.286 90.855 254.374 90.855 L 256.461 90.855 256.461 84.592 L 256.461 78.330 258.847 78.330 L 261.233 78.330 261.233 76.441 L 261.233 74.553 258.847 74.553 L 256.461 74.553 256.461 73.638 C 256.461 71.245,258.320 70.093,260.437 71.173 C 261.455 71.692,261.327 71.767,262.125 70.184 C 262.995 68.455,262.993 68.347,262.078 67.903 C 260.361 67.071,258.464 66.824,256.806 67.214 M94.433 79.125 L 94.433 90.855 96.720 90.855 L 99.006 90.855 99.006 79.125 L 99.006 67.396 96.720 67.396 L 94.433 67.396 94.433 79.125 M152.347 67.784 C 151.080 68.557,151.008 70.806,152.218 71.759 C 153.116 72.464,154.742 72.335,155.586 71.491 C 157.706 69.372,154.938 66.205,152.347 67.784 M141.849 69.917 C 140.061 70.073,140.159 69.936,140.159 72.270 L 140.159 74.354 138.569 74.354 L 136.978 74.354 136.978 76.243 L 136.978 78.131 138.555 78.131 L 140.132 78.131 140.195 82.654 C 140.277 88.531,140.717 89.631,143.436 90.767 C 144.746 91.314,149.017 91.082,149.412 90.443 C 149.700 89.978,148.459 86.845,148.033 86.962 C 144.801 87.852,144.334 87.215,144.334 81.918 L 144.334 78.131 146.620 78.131 L 148.907 78.131 148.907 76.243 L 148.907 74.354 146.620 74.354 L 144.334 74.354 144.334 72.068 L 144.334 69.781 143.489 69.815 C 143.024 69.833,142.286 69.879,141.849 69.917 M162.922 69.913 C 162.594 69.953,162.035 70.033,161.680 70.091 L 161.034 70.197 161.034 72.275 L 161.034 74.354 159.543 74.354 L 158.052 74.354 158.052 76.243 L 158.052 78.131 159.543 78.131 L 161.034 78.131 161.034 82.066 C 161.034 87.344,161.443 88.848,163.241 90.174 C 164.542 91.134,167.300 91.399,169.459 90.771 L 170.529 90.460 169.983 88.719 C 169.537 87.296,169.369 86.985,169.063 87.018 C 168.856 87.039,168.265 87.118,167.747 87.192 C 165.630 87.496,165.209 86.587,165.209 81.716 L 165.209 78.131 167.495 78.131 L 169.781 78.131 169.781 76.243 L 169.781 74.354 167.594 74.354 L 165.408 74.354 165.408 72.068 L 165.408 69.781 164.463 69.811 C 163.944 69.827,163.250 69.873,162.922 69.913 M195.924 69.917 C 194.136 70.073,194.235 69.936,194.235 72.270 L 194.235 74.354 192.644 74.354 L 191.054 74.354 191.054 76.243 L 191.054 78.131 192.628 78.131 L 194.203 78.131 194.269 82.753 C 194.354 88.572,194.718 89.527,197.287 90.664 C 198.760 91.315,203.046 91.158,203.492 90.437 C 203.771 89.985,202.507 86.852,202.092 86.967 C 198.880 87.852,198.410 87.207,198.410 81.918 L 198.410 78.131 200.696 78.131 L 202.982 78.131 202.982 76.243 L 202.982 74.354 200.696 74.354 L 198.410 74.354 198.410 72.068 L 198.410 69.781 197.565 69.815 C 197.100 69.833,196.362 69.879,195.924 69.917 M212.044 73.967 C 203.364 75.309,202.434 88.313,210.832 90.905 C 214.107 91.915,218.381 91.178,220.775 89.189 L 221.372 88.694 219.990 87.294 C 218.764 86.051,218.574 85.927,218.293 86.180 C 216.135 88.134,211.513 87.756,209.995 85.503 C 209.009 84.040,208.774 84.095,215.905 84.095 L 222.266 84.095 222.266 82.447 C 222.266 76.433,218.155 73.022,212.044 73.967 M125.781 74.336 C 123.274 75.162,122.092 76.466,121.921 78.593 C 121.675 81.660,123.634 83.576,127.555 84.104 C 131.087 84.580,131.809 84.873,131.809 85.829 C 131.809 88.289,127.120 88.384,123.980 85.988 L 123.302 85.472 122.365 86.812 C 121.120 88.592,121.129 88.514,122.091 89.338 C 126.101 92.770,134.073 91.999,135.687 88.023 C 137.249 84.174,134.862 81.292,129.636 80.717 C 126.506 80.373,125.643 79.805,126.167 78.438 C 126.698 77.056,131.018 77.193,132.620 78.643 C 132.918 78.912,133.065 78.809,134.189 77.541 L 135.430 76.142 134.961 75.745 C 132.990 74.078,128.608 73.405,125.781 74.336 M237.396 74.251 C 229.356 76.077,228.851 88.422,236.717 90.852 C 242.868 92.752,248.211 88.918,248.211 82.604 C 248.211 76.693,243.310 72.908,237.396 74.251 M109.229 74.553 C 108.674 74.772,107.857 75.263,107.413 75.644 C 106.524 76.404,106.371 76.296,106.365 74.901 L 106.362 74.354 104.374 74.354 L 102.386 74.354 102.386 82.604 L 102.386 90.855 104.573 90.855 L 106.759 90.855 106.759 86.047 C 106.759 79.415,107.893 77.464,111.423 78.022 C 114.108 78.446,114.594 79.628,114.677 85.934 L 114.742 90.855 116.815 90.855 L 118.887 90.855 118.887 85.894 C 118.887 79.501,118.557 77.999,116.729 76.076 C 115.029 74.288,111.638 73.599,109.229 74.553 M151.690 82.604 L 151.690 90.855 153.777 90.855 L 155.865 90.855 155.865 82.604 L 155.865 74.354 153.777 74.354 L 151.690 74.354 151.690 82.604 M172.763 79.481 C 172.763 85.907,173.053 87.248,174.877 89.267 C 177.120 91.750,181.581 91.867,184.384 89.516 C 185.041 88.965,185.245 89.146,185.274 90.308 L 185.288 90.855 187.276 90.855 L 189.264 90.855 189.264 82.604 L 189.264 74.354 187.078 74.354 L 184.891 74.354 184.886 79.175 C 184.880 85.680,184.078 87.276,180.815 87.276 C 177.680 87.276,177.058 85.997,176.973 79.374 L 176.908 74.354 174.836 74.354 L 172.763 74.354 172.763 79.481 M216.221 78.130 C 217.085 78.500,217.779 79.301,218.000 80.181 L 218.135 80.716 213.839 80.716 C 211.476 80.716,209.543 80.667,209.543 80.606 C 209.543 78.479,213.560 76.989,216.221 78.130 M241.985 78.641 C 244.501 80.409,244.609 84.982,242.172 86.584 C 239.074 88.621,235.384 86.515,235.390 82.714 C 235.395 78.868,239.075 76.595,241.985 78.641 M153.376 99.967 C 151.891 100.655,151.571 102.704,152.763 103.897 C 153.791 104.924,155.802 104.807,156.543 103.676 C 158.014 101.432,155.804 98.844,153.376 99.967 M329.711 99.813 C 327.744 100.391,327.446 103.355,329.261 104.293 C 330.915 105.148,332.792 104.209,332.938 102.453 C 333.098 100.543,331.546 99.273,329.711 99.813 M356.982 99.808 C 354.210 100.638,354.967 104.570,357.899 104.572 C 360.548 104.574,361.189 100.908,358.721 99.877 C 357.987 99.570,357.802 99.563,356.982 99.808 M97.415 111.171 C 94.627 117.424,92.281 122.705,92.201 122.906 C 92.064 123.252,92.197 123.269,94.578 123.217 L 97.100 123.161 98.031 121.074 L 98.962 118.986 104.982 118.986 L 111.002 118.986 111.928 121.074 L 112.854 123.161 115.392 123.217 C 116.890 123.250,117.902 123.197,117.862 123.088 C 117.824 122.987,115.474 117.706,112.639 111.353 L 107.485 99.801 104.985 99.801 L 102.484 99.801 97.415 111.171 M195.825 111.531 L 195.825 123.260 197.913 123.260 L 200.000 123.260 200.000 111.531 L 200.000 99.801 197.913 99.801 L 195.825 99.801 195.825 111.531 M275.746 101.889 L 275.746 103.976 279.423 103.976 L 283.101 103.976 283.101 113.618 L 283.101 123.260 285.388 123.260 L 287.674 123.260 287.674 113.618 L 287.674 103.976 291.352 103.976 L 295.030 103.976 295.030 101.889 L 295.030 99.801 285.388 99.801 L 275.746 99.801 275.746 101.889 M206.958 102.264 L 205.070 102.485 205.013 104.622 L 204.957 106.759 203.472 106.759 L 201.988 106.759 201.988 108.549 L 201.988 110.338 203.479 110.338 L 204.970 110.338 204.970 114.404 C 204.970 120.306,205.441 121.736,207.775 122.925 C 209.434 123.771,213.903 123.647,214.249 122.747 C 214.491 122.116,213.302 119.242,212.851 119.366 C 209.620 120.255,209.145 119.584,209.145 114.135 L 209.145 110.338 211.431 110.338 L 213.718 110.338 213.718 108.549 L 213.718 106.759 211.431 106.759 L 209.145 106.759 209.145 104.374 C 209.145 103.062,209.078 102.001,208.996 102.016 C 208.914 102.031,207.997 102.143,206.958 102.264 M131.878 105.915 C 131.465 106.434,131.112 106.886,131.094 106.918 C 131.075 106.951,130.516 106.795,129.851 106.571 C 124.028 104.609,118.558 108.977,118.938 115.285 C 119.221 119.982,121.852 122.591,126.678 122.960 C 129.889 123.205,131.213 124.152,131.213 126.203 C 131.213 130.334,124.288 130.937,123.208 126.900 L 122.979 126.044 120.905 126.044 L 118.831 126.044 118.947 127.170 C 119.847 135.887,134.701 135.740,135.517 127.007 C 135.749 124.517,134.958 122.568,133.196 121.292 L 132.398 120.713 133.084 120.289 C 135.675 118.688,136.442 113.328,134.492 110.454 L 133.992 109.717 134.891 108.548 L 135.791 107.378 134.211 106.175 L 132.630 104.972 131.878 105.915 M395.106 105.907 C 394.689 106.430,394.333 106.886,394.314 106.918 C 394.296 106.951,393.711 106.785,393.015 106.549 C 387.410 104.647,382.183 108.647,382.220 114.811 C 382.251 119.878,384.816 122.560,390.022 122.968 C 393.345 123.229,394.637 124.330,394.446 126.740 C 394.155 130.413,387.406 130.554,386.431 126.907 L 386.200 126.044 384.126 126.044 L 382.052 126.044 382.168 127.170 C 383.068 135.887,397.922 135.740,398.738 127.007 C 398.970 124.517,398.178 122.568,396.417 121.292 L 395.618 120.713 396.305 120.289 C 398.895 118.688,399.663 113.328,397.712 110.454 L 397.212 109.717 398.108 108.554 L 399.003 107.390 397.663 106.349 C 396.925 105.776,396.219 105.228,396.093 105.131 C 395.940 105.013,395.614 105.269,395.106 105.907 M107.046 114.669 C 105.904 114.700,104.042 114.700,102.909 114.669 L 100.847 114.612 102.608 110.537 C 103.576 108.295,104.511 106.153,104.684 105.777 L 105.000 105.092 107.061 109.852 L 109.121 114.612 107.046 114.669 M166.004 106.380 C 156.791 107.989,156.711 121.977,165.905 123.680 C 168.578 124.176,171.480 123.535,173.384 122.029 L 174.402 121.225 172.986 119.809 C 171.746 118.568,171.527 118.423,171.222 118.644 C 167.735 121.167,163.419 119.173,163.419 115.039 C 163.419 111.080,167.396 109.032,170.787 111.245 C 171.294 111.576,171.298 111.574,172.576 110.242 C 174.118 108.636,174.109 108.746,172.797 107.760 C 171.118 106.499,168.439 105.955,166.004 106.380 M256.539 106.459 C 251.049 107.653,248.393 114.016,251.112 119.457 C 253.383 124.001,260.724 125.252,265.358 121.884 C 266.452 121.089,266.436 120.995,264.940 119.513 L 263.678 118.262 262.923 118.774 C 259.845 120.863,254.473 119.549,254.473 116.708 C 254.473 116.569,256.556 116.501,260.809 116.501 L 267.144 116.501 267.249 115.718 C 268.088 109.464,262.989 105.056,256.539 106.459 M144.021 106.824 C 143.466 107.088,142.831 107.554,142.610 107.858 L 142.208 108.410 142.076 107.585 L 141.944 106.759 139.958 106.759 L 137.972 106.759 137.972 115.010 L 137.972 123.260 140.040 123.260 L 142.107 123.260 142.191 118.340 C 142.247 115.046,142.357 113.222,142.523 112.823 C 143.375 110.770,146.052 109.930,148.227 111.033 C 148.765 111.306,149.226 111.530,149.252 111.530 C 149.420 111.533,151.083 107.898,150.986 107.741 C 150.226 106.511,145.877 105.938,144.021 106.824 M242.430 106.824 C 241.874 107.089,241.234 107.543,241.006 107.832 L 240.593 108.357 240.458 107.558 L 240.323 106.759 238.352 106.759 L 236.382 106.759 236.382 115.010 L 236.382 123.260 238.451 123.260 L 240.521 123.260 240.600 118.340 C 240.653 114.993,240.758 113.229,240.929 112.823 C 241.793 110.767,244.462 109.930,246.636 111.033 C 247.174 111.306,247.636 111.530,247.662 111.530 C 247.829 111.533,249.493 107.898,249.396 107.741 C 248.635 106.511,244.287 105.938,242.430 106.824 M299.901 106.738 C 299.463 106.939,298.888 107.340,298.623 107.628 C 297.982 108.324,297.813 108.288,297.813 107.455 L 297.813 106.759 295.825 106.759 L 293.837 106.759 293.837 115.010 L 293.837 123.260 295.912 123.260 L 297.987 123.260 298.049 118.126 L 298.111 112.992 298.645 112.186 C 299.728 110.550,302.647 109.972,304.163 111.093 C 305.002 111.713,304.995 111.718,305.961 109.749 C 306.812 108.011,306.825 107.957,306.472 107.566 C 305.445 106.432,301.610 105.949,299.901 106.738 M313.244 106.583 C 306.163 108.245,304.984 119.909,311.588 122.971 C 314.717 124.421,318.827 123.912,320.553 121.860 L 321.052 121.268 321.112 122.214 L 321.173 123.161 323.211 123.218 L 325.249 123.274 325.249 115.017 L 325.249 106.759 323.161 106.759 L 321.074 106.759 321.074 107.723 L 321.074 108.686 320.289 107.940 C 318.817 106.540,315.857 105.970,313.244 106.583 M344.005 106.562 C 342.996 106.770,341.702 107.410,340.706 108.194 L 339.960 108.781 339.960 108.085 C 339.960 106.790,339.912 106.759,337.851 106.759 L 335.984 106.759 335.984 115.010 L 335.984 123.260 338.059 123.260 L 340.133 123.260 340.196 118.439 C 340.276 112.290,340.862 110.890,343.546 110.436 C 347.141 109.829,348.101 111.492,348.107 118.340 L 348.111 123.260 350.319 123.260 L 352.527 123.260 352.438 117.942 C 352.340 112.032,352.178 111.110,350.919 109.280 C 349.450 107.145,346.605 106.026,344.005 106.562 M371.241 106.559 C 370.233 106.770,368.936 107.412,367.954 108.185 L 367.219 108.763 367.158 107.811 L 367.097 106.859 365.159 106.802 L 363.221 106.745 363.221 115.003 L 363.221 123.260 365.293 123.260 L 367.365 123.260 367.430 118.439 L 367.495 113.618 368.061 112.598 C 369.680 109.676,373.429 109.575,374.854 112.415 C 375.340 113.383,375.348 113.475,375.348 118.329 L 375.348 123.260 377.535 123.260 L 379.722 123.260 379.718 118.738 C 379.713 113.792,379.579 112.403,378.939 110.706 C 377.819 107.737,374.402 105.896,371.241 106.559 M152.286 114.911 L 152.286 123.260 154.473 123.260 L 156.660 123.260 156.660 114.911 L 156.660 106.561 154.473 106.561 L 152.286 106.561 152.286 114.911 M328.429 114.911 L 328.429 123.260 330.517 123.260 L 332.604 123.260 332.604 114.911 L 332.604 106.561 330.517 106.561 L 328.429 106.561 328.429 114.911 M355.666 114.911 L 355.666 123.260 357.753 123.260 L 359.841 123.260 359.841 114.911 L 359.841 106.561 357.753 106.561 L 355.666 106.561 355.666 114.911 M175.991 112.276 C 176.085 118.376,176.201 119.036,177.529 120.965 C 179.598 123.973,184.015 124.513,187.307 122.160 C 188.360 121.408,188.469 121.440,188.469 122.498 L 188.469 123.260 190.457 123.260 L 192.445 123.260 192.445 115.010 L 192.445 106.759 190.376 106.759 L 188.307 106.759 188.239 111.581 L 188.171 116.402 187.577 117.474 C 186.097 120.147,182.564 120.469,180.979 118.074 L 180.417 117.227 180.359 111.993 L 180.300 106.759 178.103 106.759 L 175.907 106.759 175.991 112.276 M216.741 112.475 C 216.820 119.095,216.931 119.611,218.698 121.544 C 221.098 124.170,225.492 124.334,228.264 121.900 L 228.975 121.276 229.107 122.268 L 229.238 123.260 231.120 123.260 L 233.002 123.260 233.002 115.010 L 233.002 106.759 230.927 106.759 L 228.852 106.759 228.790 111.680 C 228.708 118.172,227.927 119.682,224.652 119.682 C 221.587 119.682,220.877 118.142,220.876 111.481 L 220.875 106.759 218.774 106.759 L 216.673 106.759 216.741 112.475 M260.235 110.157 C 261.612 110.452,263.022 111.746,263.022 112.714 C 263.022 112.853,261.629 112.922,258.847 112.922 C 256.551 112.922,254.672 112.846,254.672 112.753 C 254.672 111.125,257.845 109.644,260.235 110.157 M128.953 110.463 C 132.188 111.998,132.180 117.238,128.941 118.709 C 125.716 120.174,122.451 117.232,123.222 113.556 C 123.782 110.886,126.618 109.355,128.953 110.463 M317.709 110.366 C 320.821 111.298,321.934 115.722,319.711 118.319 C 316.870 121.638,311.528 119.476,311.537 115.010 C 311.544 111.611,314.483 109.399,317.709 110.366 M391.925 110.329 C 393.419 110.897,394.632 112.799,394.632 114.575 C 394.632 119.785,387.580 120.794,386.450 115.745 C 385.664 112.232,388.792 109.138,391.925 110.329 M7.773 129.999 C 8.603 130.411,10.001 130.955,10.878 131.209 L 12.473 131.669 12.583 134.572 C 12.643 136.169,12.795 137.819,12.921 138.239 C 13.244 139.317,13.106 139.304,12.184 138.170 C 11.036 136.759,9.653 135.662,8.099 134.929 L 6.754 134.294 5.990 131.909 C 5.571 130.596,5.165 129.265,5.088 128.950 L 4.950 128.377 5.606 128.814 C 5.967 129.054,6.942 129.587,7.773 129.999 M146.918 136.380 L 146.918 140.753 146.011 140.060 C 143.384 138.055,138.894 138.144,136.129 140.255 C 132.329 143.156,132.160 150.389,135.813 153.771 C 138.543 156.298,143.509 156.645,145.969 154.480 C 146.944 153.622,147.107 153.699,147.115 155.020 C 147.117 155.454,147.177 155.467,149.105 155.467 L 151.093 155.467 151.093 143.738 L 151.093 132.008 149.006 132.008 L 146.918 132.008 146.918 136.380 M161.431 143.738 L 161.431 155.467 163.718 155.467 L 166.004 155.467 166.004 151.590 L 166.004 147.714 168.042 147.720 L 170.080 147.726 173.434 151.597 L 176.788 155.467 179.547 155.467 C 181.065 155.467,182.306 155.390,182.306 155.296 C 182.306 155.203,180.785 153.408,178.926 151.310 C 175.506 147.447,175.270 147.121,175.895 147.113 C 179.625 147.066,182.343 140.677,180.387 136.550 C 178.574 132.723,176.539 132.008,167.468 132.008 L 161.431 132.008 161.431 143.738 M289.066 143.738 L 289.066 155.467 291.153 155.467 L 293.241 155.467 293.241 151.030 C 293.241 144.188,294.264 142.381,297.907 142.792 C 300.412 143.074,300.785 144.066,300.791 150.447 L 300.795 155.467 303.003 155.467 L 305.210 155.467 305.122 149.950 C 305.013 143.145,304.841 142.384,302.997 140.540 C 300.709 138.252,296.545 138.080,294.164 140.175 L 293.241 140.988 293.241 136.498 L 293.241 132.008 291.153 132.008 L 289.066 132.008 289.066 143.738 M174.559 136.829 C 177.008 138.066,177.181 141.322,174.887 143.023 C 174.367 143.409,174.023 143.444,170.165 143.500 L 166.004 143.561 166.004 139.971 L 166.004 136.382 169.839 136.382 C 173.420 136.382,173.732 136.411,174.559 136.829 M190.159 138.579 C 184.389 139.328,181.306 145.087,183.514 150.994 C 185.267 155.685,191.941 157.452,197.255 154.633 C 199.286 153.555,199.298 153.486,197.728 151.903 L 196.376 150.540 195.674 151.017 C 193.098 152.764,189.217 152.324,187.728 150.115 C 186.742 148.652,186.508 148.708,193.638 148.708 L 200.000 148.708 200.000 147.060 C 200.000 141.144,196.126 137.806,190.159 138.579 M225.677 138.584 C 219.724 139.356,216.575 146.100,219.535 151.740 C 221.834 156.119,228.941 157.410,233.496 154.276 C 234.873 153.329,234.862 153.183,233.308 151.761 L 231.952 150.520 231.334 150.986 C 228.516 153.113,222.863 151.731,222.863 148.914 C 222.863 148.776,224.945 148.708,229.199 148.708 L 235.534 148.708 235.650 147.998 C 236.199 144.611,234.342 140.715,231.541 139.378 C 230.588 138.923,226.993 138.155,226.944 138.395 C 226.941 138.409,226.371 138.494,225.677 138.584 M99.304 138.833 C 95.256 139.865,93.350 142.583,93.356 147.316 C 93.360 150.324,93.547 151.059,94.751 152.819 C 97.127 156.289,102.978 157.147,106.018 154.472 L 106.932 153.667 107.067 154.567 L 107.202 155.467 109.168 155.467 L 111.133 155.467 111.133 147.217 L 111.133 138.966 109.166 138.966 C 107.021 138.966,106.958 139.001,106.958 140.196 L 106.958 140.797 106.223 140.151 C 104.637 138.758,101.754 138.209,99.304 138.833 M206.362 139.021 C 203.887 139.868,202.580 141.498,202.589 143.727 C 202.601 146.717,204.830 148.426,209.334 148.897 C 211.777 149.153,212.525 149.515,212.525 150.441 C 212.525 152.901,207.789 152.988,204.641 150.586 L 203.993 150.092 202.959 151.625 L 201.924 153.158 202.764 153.903 C 206.687 157.385,214.788 156.632,216.400 152.636 C 217.813 149.134,215.758 146.140,211.513 145.520 C 207.944 144.998,207.687 144.938,207.226 144.505 C 204.891 142.311,210.959 141.104,213.367 143.283 C 213.561 143.459,213.745 143.566,213.775 143.521 C 213.804 143.476,214.352 142.832,214.991 142.089 C 215.630 141.346,216.119 140.710,216.078 140.676 C 213.650 138.632,209.543 137.933,206.362 139.021 M243.560 138.872 C 238.545 140.273,236.250 145.772,238.359 151.332 C 240.132 156.007,247.504 157.679,250.823 154.159 L 251.491 153.451 251.491 154.459 L 251.491 155.467 253.579 155.467 L 255.666 155.467 255.666 147.217 L 255.666 138.966 253.579 138.966 L 251.491 138.966 251.491 139.976 L 251.491 140.985 250.846 140.340 C 249.314 138.808,246.103 138.161,243.560 138.872 M265.605 138.754 C 264.717 139.024,263.861 139.543,263.458 140.056 C 263.026 140.605,262.823 140.411,262.823 139.447 C 262.823 138.971,262.805 138.966,260.835 138.966 L 258.847 138.966 258.847 147.217 L 258.847 155.467 260.934 155.467 L 263.022 155.467 263.023 150.845 C 263.024 148.279,263.115 145.894,263.229 145.483 C 263.880 143.142,266.599 142.088,268.957 143.263 C 269.531 143.549,270.026 143.751,270.056 143.711 C 270.086 143.671,270.528 142.859,271.037 141.906 L 271.962 140.174 271.319 139.690 C 270.030 138.720,267.228 138.261,265.605 138.754 M277.885 138.944 C 269.648 141.652,270.514 154.290,279.047 155.888 C 281.692 156.384,284.605 155.739,286.506 154.236 L 287.524 153.432 286.107 152.015 C 284.867 150.775,284.648 150.630,284.344 150.850 C 280.868 153.365,276.531 151.375,276.545 147.273 C 276.558 143.531,279.923 141.485,283.293 143.169 L 284.542 143.793 285.792 142.423 L 287.041 141.054 286.514 140.496 C 284.890 138.775,280.695 138.020,277.885 138.944 M121.670 138.942 C 120.838 139.215,119.570 139.913,118.932 140.450 L 118.328 140.958 118.191 139.962 L 118.054 138.966 116.184 138.966 L 114.314 138.966 114.314 147.217 L 114.314 155.467 116.402 155.467 L 118.489 155.467 118.491 150.746 C 118.493 146.190,118.510 145.988,118.967 145.007 C 120.361 142.011,124.279 141.745,125.845 144.540 C 126.333 145.412,126.343 145.517,126.404 150.447 L 126.466 155.467 128.555 155.467 L 130.644 155.467 130.575 149.851 C 130.496 143.391,130.378 142.831,128.689 140.953 C 127.073 139.156,123.842 138.231,121.670 138.942 M103.479 142.565 C 105.411 143.052,106.800 144.987,106.821 147.221 C 106.879 153.294,98.203 153.889,97.495 147.860 C 97.076 144.293,100.014 141.693,103.479 142.565 M194.032 142.793 C 194.981 143.278,195.534 143.923,195.738 144.781 L 195.868 145.328 191.577 145.328 L 187.286 145.328 187.493 144.781 C 188.296 142.655,191.723 141.613,194.032 142.793 M229.628 142.793 C 230.541 143.254,231.412 144.312,231.412 144.960 C 231.412 145.307,231.165 145.328,227.133 145.328 L 222.855 145.328 223.255 144.544 C 224.293 142.510,227.385 141.660,229.628 142.793 M249.020 143.039 C 250.558 143.941,251.418 145.748,251.240 147.707 C 250.681 153.871,241.973 153.452,241.953 147.260 C 241.940 143.392,245.744 141.120,249.020 143.039 M143.378 142.779 C 147.251 143.939,147.693 149.751,144.039 151.469 C 140.854 152.966,137.472 150.769,137.493 147.217 C 137.513 143.915,140.259 141.844,143.378 142.779 M23.559 150.182 C 23.559 152.961,23.546 155.220,23.532 155.202 C 23.438 155.088,21.272 147.686,21.272 147.481 C 21.272 147.241,23.230 145.129,23.452 145.129 C 23.511 145.129,23.559 147.403,23.559 150.182 M17.815 150.103 C 18.374 151.582,18.892 152.982,18.966 153.216 L 19.100 153.640 17.594 153.162 C 16.766 152.899,15.960 152.684,15.804 152.684 C 15.567 152.684,12.990 148.638,12.630 147.702 C 12.539 147.464,12.879 147.416,14.660 147.416 L 16.799 147.416 17.815 150.103 " stroke="none" fill="#fff" fill-rule="evenodd"></path></g></svg>