<svg id="svg" xmlns="http://www.w3.org/2000/svg" xmlns:xlink="http://www.w3.org/1999/xlink" width="400" height="84.22120750887873" viewBox="0, 0, 400,84.22120750887873"><g id="svgg"><path id="path0" d="M28.047 0.223 C 17.226 1.689,9.438 7.888,4.594 18.892 C 0.655 27.842,3.830 41.204,11.763 49.057 C 15.461 52.719,23.920 57.142,24.849 55.901 C 27.803 51.956,28.984 40.760,27.002 35.485 C 24.882 29.842,15.729 29.162,6.388 33.954 C 3.827 35.267,3.775 35.195,5.922 33.312 C 13.980 26.246,20.828 24.581,35.211 26.192 C 47.017 27.515,51.245 27.011,57.788 23.505 C 59.946 22.348,59.873 22.575,58.975 19.834 C 54.748 6.931,41.333 -1.575,28.047 0.223 M35.341 12.209 C 38.077 13.029,39.537 16.591,38.152 19.067 C 36.558 21.915,32.811 22.472,30.538 20.198 C 27.005 16.666,30.548 10.773,35.341 12.209 M83.409 16.363 C 78.076 17.387,75.497 20.823,75.335 27.120 C 75.191 32.726,76.714 36.030,81.472 40.430 C 87.878 46.353,88.981 47.935,89.238 51.558 C 89.481 54.973,88.385 56.520,85.723 56.520 C 83.032 56.520,82.192 55.326,82.192 51.504 L 82.192 49.112 78.611 49.112 L 75.031 49.112 75.141 52.207 C 75.424 60.126,79.368 63.975,86.657 63.445 C 93.509 62.946,96.737 59.079,96.672 51.446 C 96.620 45.421,94.889 42.296,88.434 36.582 C 84.743 33.313,83.261 31.178,82.809 28.473 C 82.251 25.137,83.438 23.135,85.973 23.136 C 88.575 23.138,89.420 24.212,89.638 27.801 L 89.762 29.833 93.181 29.833 L 96.601 29.833 96.597 27.651 C 96.585 20.290,93.187 16.456,86.555 16.320 C 85.104 16.290,83.688 16.310,83.409 16.363 M191.578 16.558 C 186.608 17.877,184.165 21.558,184.181 27.702 C 184.194 32.842,186.040 36.490,190.823 40.826 C 196.949 46.380,198.173 48.268,198.173 52.156 C 198.172 55.272,197.098 56.621,194.617 56.621 C 192.118 56.621,191.193 55.302,191.021 51.497 L 190.913 49.112 187.470 49.112 L 184.026 49.112 184.124 52.308 C 184.356 59.911,187.644 63.387,194.622 63.410 C 202.495 63.436,206.542 58.363,205.585 49.665 C 205.043 44.742,203.263 41.859,197.680 36.861 C 193.037 32.705,191.745 30.656,191.709 27.397 C 191.676 24.302,192.586 23.135,195.035 23.135 C 197.562 23.135,198.478 24.367,198.478 27.766 L 198.478 29.833 202.061 29.833 L 205.644 29.833 205.521 27.144 C 205.237 20.907,202.794 17.478,197.910 16.460 C 196.416 16.148,192.918 16.203,191.578 16.558 M216.376 18.214 C 216.130 19.191,215.694 20.857,215.407 21.918 C 215.119 22.978,214.585 24.969,214.219 26.342 L 213.553 28.838 214.362 28.777 C 215.165 28.717,215.175 28.706,215.618 27.387 C 216.953 23.414,219.100 21.211,222.716 20.106 C 224.262 19.633,230.523 19.225,230.283 19.613 C 230.173 19.791,228.440 25.541,227.815 27.803 C 227.551 28.758,225.199 36.798,224.312 39.777 C 224.030 40.726,223.726 41.776,223.637 42.111 C 223.549 42.445,223.001 44.318,222.420 46.271 C 221.839 48.224,221.319 50.005,221.264 50.228 C 219.256 58.427,217.580 60.746,213.455 61.033 C 211.909 61.141,211.466 61.453,211.466 62.435 C 211.466 62.474,216.024 62.506,221.594 62.506 L 231.721 62.506 231.944 61.867 C 232.066 61.516,232.166 61.209,232.166 61.185 C 232.166 61.161,231.321 61.097,230.287 61.043 C 225.009 60.767,224.819 59.889,227.807 49.619 C 228.327 47.834,228.880 45.916,229.037 45.358 C 229.193 44.800,229.506 43.704,229.731 42.922 C 229.956 42.141,230.269 41.045,230.425 40.487 C 230.582 39.929,231.413 37.052,232.272 34.094 C 233.132 31.136,233.903 28.442,233.986 28.108 C 234.069 27.773,234.299 26.951,234.497 26.281 C 234.696 25.611,235.017 24.515,235.211 23.846 C 235.405 23.176,235.779 21.907,236.041 21.025 L 236.518 19.423 240.177 19.542 C 245.060 19.700,245.899 19.992,246.765 21.834 C 247.277 22.922,247.331 25.442,246.884 27.296 C 246.722 27.965,246.587 28.582,246.583 28.666 C 246.579 28.749,246.937 28.818,247.380 28.818 L 248.184 28.818 249.092 25.926 C 251.006 19.823,251.852 17.005,251.852 16.727 C 251.852 16.480,249.344 16.438,234.338 16.438 L 216.824 16.438 216.376 18.214 M100.660 39.883 L 100.660 62.921 104.363 62.866 L 108.067 62.811 108.168 55.302 L 108.270 47.793 109.474 45.405 C 110.136 44.092,110.743 43.087,110.823 43.173 C 110.964 43.325,111.399 44.718,113.309 51.142 C 114.211 54.174,116.067 60.323,116.587 61.999 L 116.838 62.811 120.672 62.811 L 124.505 62.811 124.440 62.303 C 124.404 62.024,124.012 60.609,123.569 59.158 C 123.126 57.707,122.543 55.789,122.273 54.896 C 120.811 50.052,119.633 46.135,118.519 42.415 C 117.257 38.198,117.030 37.453,116.298 35.133 L 115.889 33.838 119.162 27.421 C 120.962 23.892,122.878 20.155,123.419 19.117 C 123.961 18.080,124.404 17.144,124.404 17.037 C 124.404 16.922,122.906 16.844,120.694 16.844 L 116.985 16.844 116.292 18.316 C 113.844 23.518,110.375 30.779,109.045 33.485 L 108.197 35.211 108.183 26.027 L 108.168 16.844 104.414 16.844 L 100.660 16.844 100.660 39.883 M127.701 39.827 L 127.752 62.811 131.456 62.866 L 135.160 62.921 135.160 39.883 L 135.160 16.844 131.405 16.844 L 127.649 16.844 127.701 39.827 M140.233 39.878 L 140.233 62.912 149.873 62.912 L 159.513 62.912 159.513 59.462 L 159.513 56.012 153.628 56.012 L 147.742 56.012 147.742 36.428 L 147.742 16.844 143.988 16.844 L 140.233 16.844 140.233 39.878 M162.760 39.878 L 162.760 62.912 172.400 62.912 L 182.040 62.912 182.040 59.462 L 182.040 56.012 176.154 56.012 L 170.269 56.012 170.269 36.428 L 170.269 16.844 166.514 16.844 L 162.760 16.844 162.760 39.878 M309.423 18.548 C 305.918 19.847,306.827 25.348,310.549 25.364 C 314.976 25.384,315.467 18.871,311.077 18.363 C 310.566 18.304,309.874 18.381,309.423 18.548 M57.940 24.620 C 56.126 26.498,54.797 27.519,52.202 29.024 L 50.849 29.809 51.452 30.039 C 54.490 31.201,59.929 33.086,60.010 33.006 C 60.544 32.471,60.478 25.960,59.912 23.389 L 59.767 22.729 57.940 24.620 M253.070 31.876 C 252.108 32.054,248.825 32.592,245.003 33.200 C 242.278 33.633,242.272 33.635,242.441 34.478 L 242.573 35.139 243.592 34.999 C 247.366 34.480,248.062 35.473,246.874 39.684 C 246.360 41.507,246.195 42.065,244.832 46.575 C 244.427 47.915,244.050 49.193,243.994 49.417 C 243.938 49.640,243.549 50.964,243.129 52.359 C 242.709 53.754,241.934 56.357,241.406 58.143 C 240.879 59.929,240.370 61.641,240.275 61.948 L 240.102 62.506 242.838 62.506 C 244.851 62.506,245.593 62.439,245.648 62.253 C 245.688 62.113,245.924 61.223,246.171 60.274 C 247.529 55.063,249.150 51.106,251.317 47.710 C 255.063 41.843,258.643 37.531,260.022 37.229 C 260.775 37.063,260.986 37.277,261.387 38.611 C 262.576 42.571,266.864 39.672,266.946 34.852 C 267.027 30.060,262.413 30.880,257.313 36.563 C 255.174 38.946,251.545 43.951,250.446 46.035 C 249.922 47.026,250.024 46.228,250.704 44.008 C 251.093 42.741,251.790 40.426,252.255 38.864 C 252.720 37.301,253.333 35.246,253.618 34.297 C 254.286 32.074,254.373 31.654,254.159 31.683 C 254.062 31.696,253.572 31.783,253.070 31.876 M281.786 31.962 C 270.476 34.078,260.051 54.655,266.784 61.571 C 270.371 65.254,276.747 62.943,282.592 55.841 C 283.847 54.317,283.847 54.318,283.217 56.741 C 282.030 61.310,282.793 63.318,285.716 63.318 C 288.349 63.318,291.800 60.921,294.410 57.278 L 295.321 56.007 294.844 55.611 C 294.095 54.986,293.817 55.110,292.740 56.545 C 289.956 60.252,287.919 60.574,288.676 57.187 C 289.062 55.460,290.211 51.320,291.735 46.169 C 292.329 44.160,292.951 42.014,293.116 41.400 C 293.282 40.786,293.969 38.369,294.643 36.028 C 295.317 33.688,295.851 31.755,295.829 31.734 C 295.807 31.712,295.332 31.769,294.774 31.860 C 294.216 31.950,292.970 32.133,292.004 32.266 L 290.249 32.507 289.938 33.351 C 289.766 33.816,289.513 34.586,289.376 35.063 L 289.126 35.931 288.546 34.721 C 287.338 32.205,285.184 31.326,281.786 31.962 M309.893 31.899 C 309.280 32.005,306.814 32.408,304.414 32.796 C 298.990 33.671,299.340 33.560,299.340 34.412 C 299.340 35.194,299.457 35.222,301.484 34.933 C 304.009 34.572,304.628 35.370,304.003 38.178 C 303.774 39.204,303.550 40.103,303.504 40.177 C 303.459 40.251,303.234 40.990,303.005 41.820 C 302.512 43.604,302.279 44.406,300.355 50.939 C 297.866 59.393,297.697 60.294,298.347 61.637 C 300.065 65.186,305.684 63.053,310.119 57.167 L 311.343 55.543 310.770 55.075 C 309.993 54.439,309.896 54.466,309.086 55.541 C 305.436 60.382,303.047 60.710,304.391 56.186 C 304.853 54.633,306.711 48.037,307.128 46.474 C 307.292 45.860,308.301 42.306,309.370 38.576 C 311.519 31.078,311.371 31.650,311.162 31.683 C 311.078 31.696,310.507 31.794,309.893 31.899 M324.911 32.070 C 322.289 32.563,318.415 33.270,316.692 33.570 L 315.271 33.817 315.342 34.514 C 315.433 35.423,315.339 35.389,316.969 35.114 C 320.398 34.535,320.743 35.548,319.074 41.299 C 318.685 42.638,318.298 44.008,318.214 44.343 C 318.130 44.678,317.721 46.093,317.305 47.489 C 316.889 48.884,316.433 50.436,316.291 50.939 C 316.149 51.441,315.602 53.313,315.076 55.099 C 314.125 58.328,313.718 59.747,313.242 61.492 L 312.994 62.405 315.440 62.462 C 318.477 62.533,318.287 62.624,318.817 60.847 C 321.942 50.358,327.346 41.285,332.884 37.234 C 337.196 34.080,337.922 36.047,335.469 44.242 C 330.916 59.452,330.561 61.614,332.408 62.859 C 334.756 64.441,339.115 61.925,342.855 56.829 L 343.819 55.516 343.373 55.155 C 342.713 54.620,342.490 54.699,341.645 55.758 C 340.469 57.236,339.088 58.629,338.339 59.096 L 337.661 59.517 337.234 59.089 L 336.806 58.662 337.272 56.982 C 337.528 56.058,337.900 54.754,338.099 54.084 C 338.298 53.415,338.696 52.045,338.985 51.040 C 339.273 50.036,340.008 47.524,340.617 45.459 C 343.582 35.408,343.476 32.956,340.032 31.955 C 336.026 30.791,331.847 33.862,325.661 42.516 C 322.833 46.473,322.913 46.489,324.196 42.212 C 327.038 32.737,327.332 31.629,326.991 31.683 C 326.908 31.697,325.972 31.871,324.911 32.070 M364.384 31.893 C 350.976 33.389,340.781 51.924,348.637 60.519 C 353.226 65.541,362.153 63.868,370.146 56.489 L 371.444 55.291 370.936 54.701 L 370.428 54.111 368.598 55.454 C 367.591 56.193,366.185 57.154,365.474 57.589 C 358.473 61.873,351.428 58.503,352.043 51.164 L 352.161 49.757 353.605 49.620 C 364.339 48.601,372.666 43.692,373.622 37.818 C 374.218 34.161,370.834 31.315,366.330 31.686 C 366.152 31.700,365.277 31.794,364.384 31.893 M386.098 31.893 C 385.540 31.984,383.896 32.246,382.445 32.477 C 374.998 33.659,375.404 33.548,375.483 34.365 C 375.541 34.959,375.599 35.005,376.256 34.976 C 381.478 34.740,381.469 34.683,378.084 45.865 C 377.661 47.260,376.882 49.863,376.352 51.649 C 375.335 55.078,374.012 59.507,373.511 61.160 C 373.346 61.703,373.212 62.228,373.212 62.327 C 373.212 62.426,374.431 62.506,375.921 62.506 L 378.630 62.506 379.287 59.956 C 381.019 53.234,383.391 48.467,388.093 42.258 C 391.981 37.124,393.755 36.011,394.317 38.354 C 394.875 40.679,397.163 41.082,398.653 39.117 C 399.897 37.478,400.406 34.053,399.603 32.735 C 397.426 29.164,390.069 35.114,383.763 45.546 C 383.115 46.617,383.027 46.167,383.557 44.496 C 384.370 41.929,384.744 40.692,385.688 37.443 C 386.207 35.657,386.802 33.672,387.010 33.032 C 387.448 31.685,387.440 31.675,386.098 31.893 M43.160 32.763 C 39.331 35.068,38.347 36.681,36.146 44.253 C 33.289 54.080,31.422 57.776,27.418 61.532 C 24.326 64.434,19.234 66.637,15.018 66.896 L 13.293 67.002 14.916 66.043 C 17.948 64.252,22.321 60.407,21.856 59.942 C 21.745 59.830,5.081 53.721,2.170 52.724 C -0.045 51.966,0.097 51.762,0.124 55.675 C 0.271 76.957,22.634 90.648,41.705 81.132 C 60.338 71.833,62.882 46.430,46.478 33.472 C 44.450 31.871,44.591 31.901,43.160 32.763 M367.250 34.194 C 370.063 36.037,368.038 41.201,363.281 44.314 C 360.798 45.939,356.979 47.277,353.684 47.678 L 352.523 47.819 352.644 47.298 C 354.596 38.931,362.989 31.402,367.250 34.194 M285.958 34.551 C 290.022 37.685,286.798 49.044,279.886 55.947 C 274.050 61.775,269.074 59.167,270.718 51.142 C 272.923 40.377,281.461 31.083,285.958 34.551 " stroke="none" fill="#fff" fill-rule="evenodd"></path></g></svg>